<?xml version="1.0" encoding="utf-8"?>
<!-- Generator: Adobe Illustrator 29.7.1, SVG Export Plug-In . SVG Version: 9.03 Build 0)  -->
<svg version="1.0" id="Ebene_1" xmlns="http://www.w3.org/2000/svg" xmlns:xlink="http://www.w3.org/1999/xlink" x="0px" y="0px"
	 viewBox="0 0 559 415.89" style="enable-background:new 0 0 559 415.89;" xml:space="preserve">
<style type="text/css">
	.st0{clip-path:url(#SVGID_00000044876159179648825930000013311394435029683856_);}
	.st1{clip-path:url(#SVGID_00000068649651545739483330000001387243932622453388_);}
	.st2{clip-path:url(#SVGID_00000113317342515537685920000013085534330745794956_);}
	.st3{fill:#FFFFFF;}
</style>
<g>
	<g>
		<g transform="matrix(1, 0, 0, 1, 0, -0.000000000000053457)">
			<g>
				<g>
					<defs>
						<rect id="SVGID_1_" y="0" width="558.67" height="586.67"/>
					</defs>
					<clipPath id="SVGID_00000111160343909020012980000009517195531654390454_">
						<use xlink:href="#SVGID_1_"  style="overflow:visible;"/>
					</clipPath>
					<g style="clip-path:url(#SVGID_00000111160343909020012980000009517195531654390454_);">
						<g>
							<g>
								<defs>
									<rect id="SVGID_00000130637586022596086150000012830553743353091234_" x="2.67" y="0.37" width="555.33" height="315.62"/>
								</defs>
								<clipPath id="SVGID_00000146461541319096455580000010975727485752105358_">
									<use xlink:href="#SVGID_00000130637586022596086150000012830553743353091234_"  style="overflow:visible;"/>
								</clipPath>
								<g style="clip-path:url(#SVGID_00000146461541319096455580000010975727485752105358_);">
									<g transform="matrix(1, 0, 0, 1, 2, -0.000000000000053457)">
										<g>
											<g>
												<defs>
													<rect id="SVGID_00000018949934248459815110000015581301183403192966_" x="0.67" y="0" width="556" height="316"/>
												</defs>
												<clipPath id="SVGID_00000165927726975112148790000004315456209352696974_">
													<use xlink:href="#SVGID_00000018949934248459815110000015581301183403192966_"  style="overflow:visible;"/>
												</clipPath>
												<g style="clip-path:url(#SVGID_00000165927726975112148790000004315456209352696974_);">
													<g>
														<g transform="translate(0.827712, 66.907355)">
															<g>
																<path class="st3" d="M65.84-61.74H5.61V22.3h60.23V7.82H19.71v-19.79h33.15v-14.48H19.53l0.19-20.81h46.13v-14.48
																	H65.84z"/>
															</g>
														</g>
													</g>
													<g>
														<g transform="translate(50.063252, 66.907355)">
															<g>
																<path class="st3" d="M88.31-43.05V22.3h-14L77.1,3.07h-2.79c-1.06,4.67-2.81,8.41-5.27,11.21
																	c-2.46,2.79-5.42,4.83-8.88,6.1c-3.46,1.28-7.21,1.92-11.25,1.92c-3.06,0-6.11-0.46-9.17-1.4
																	c-3.04-0.93-5.84-2.55-8.4-4.85c-2.54-2.3-4.6-5.54-6.17-9.71c-1.56-4.18-2.33-9.47-2.33-15.88v-33.52h14.02v33.52
																	c0,5.42,0.71,9.62,2.15,12.6c1.43,2.99,3.4,5.07,5.92,6.25c2.53,1.18,5.38,1.77,8.56,1.77
																	c2.54,0,5.04-0.32,7.5-0.98c2.46-0.65,4.68-1.74,6.67-3.27c2-1.53,3.59-3.63,4.77-6.29
																	c1.19-2.68,1.79-6.04,1.79-10.08l0.08-33.52L88.31-43.05L88.31-43.05z"/>
															</g>
														</g>
													</g>
													<g>
														<g transform="translate(103.851163, 66.907355)">
															<g>
																<path class="st3" d="M39.95,22.3v-65.35h14l-2.79,19.23h2.79c1.07-4.67,2.81-8.4,5.23-11.21
																	c2.43-2.8,5.31-4.84,8.65-6.1c3.33-1.28,6.83-1.92,10.5-1.92v11.19c-4.6,0-8.74,0.6-12.42,1.79
																	c-3.67,1.18-6.56,3.27-8.69,6.25c-2.11,2.99-3.17,7.19-3.17,12.6l-0.1,33.52C53.95,22.3,39.95,22.3,39.95,22.3z"/>
															</g>
														</g>
													</g>
													<g>
														<g transform="translate(136.698205, 66.907355)">
															<g>
																<path class="st3" d="M85.73,23.24c-4.79,0-9.29-0.74-13.5-2.23c-4.2-1.5-7.9-3.69-11.1-6.58
																	c-3.21-2.9-5.72-6.44-7.52-10.6c-1.81-4.18-2.71-8.95-2.71-14.3c0-5.36,0.9-10.11,2.71-14.25
																	c1.8-4.14,4.31-7.64,7.52-10.5c3.21-2.86,6.91-5.03,11.1-6.52c4.21-1.5,8.71-2.25,13.5-2.25s9.3,0.75,13.54,2.25
																	c4.23,1.49,7.95,3.66,11.15,6.52c3.21,2.86,5.71,6.36,7.52,10.5c1.8,4.14,2.71,8.89,2.71,14.25
																	c0,5.35-0.91,10.11-2.71,14.29c-1.81,4.17-4.31,7.7-7.52,10.6c-3.2,2.89-6.91,5.08-11.15,6.58
																	S90.52,23.24,85.73,23.24z M64.9-10.47c0,4.17,0.76,7.97,2.29,11.4c1.53,3.42,3.83,6.12,6.92,8.12
																	c3.08,1.99,6.96,2.98,11.62,2.98s8.55-0.99,11.67-2.98c3.11-2,5.43-4.71,6.96-8.12c1.53-3.43,2.29-7.23,2.29-11.4
																	s-0.77-7.93-2.29-11.29c-1.53-3.38-3.85-6.05-6.96-8.04c-3.11-1.98-7-2.98-11.67-2.98s-8.54,0.99-11.62,2.98
																	s-5.39,4.67-6.92,8.04C65.66-18.4,64.9-14.64,64.9-10.47z"/>
															</g>
														</g>
													</g>
													<g>
														<g transform="translate(193.077467, 66.907355)">
															<g>
																<path class="st3" d="M83.69,50.32h-14v-93.38h14L80.9-25.51h2.79c1.75-6.84,4.72-11.79,8.92-14.83
																	c4.21-3.05,9.3-4.58,15.27-4.58c4.61,0,8.91,0.88,12.9,2.62c3.98,1.74,7.51,4.15,10.58,7.23
																	c3.08,3.08,5.48,6.67,7.19,10.75c1.72,4.07,2.58,8.44,2.58,13.1c0,4.61-0.86,8.94-2.58,12.98
																	c-1.71,4.04-4.1,7.6-7.19,10.69c-3.07,3.08-6.6,5.5-10.58,7.25c-3.99,1.74-8.29,2.6-12.9,2.6
																	c-5.97,0-11.06-1.49-15.27-4.48c-4.2-2.98-7.17-7.9-8.92-14.75L80.9,3.26l2.79,19.04V50.32z M83.69-11.22
																	c0,7.35,2.04,12.89,6.12,16.62c4.08,3.74,9.79,5.6,17.12,5.6c4.55,0,8.3-1.03,11.25-3.08
																	c2.96-2.05,5.17-4.78,6.62-8.17c1.47-3.4,2.21-7.09,2.21-11.08c0-4.04-0.74-7.77-2.21-11.19
																	c-1.46-3.43-3.67-6.19-6.62-8.27c-2.95-2.08-6.7-3.12-11.25-3.12c-7.33,0-13.04,2.02-17.12,6.06
																	C85.73-23.8,83.69-18.26,83.69-11.22z"/>
															</g>
														</g>
													</g>
													<g>
														<g transform="translate(250.717365, 66.907355)">
															<g>
																<path class="st3" d="M88.91-10.47c0-6.79,1.49-12.69,4.48-17.69c2.98-5.01,7.07-8.9,12.27-11.67
																	c5.21-2.78,11.14-4.17,17.79-4.17c4.61,0,9.01,0.68,13.21,2.02c4.21,1.33,7.96,3.48,11.25,6.44
																	c3.3,2.95,5.91,6.79,7.81,11.52c1.9,4.74,2.85,10.47,2.85,17.19h-55.56c0.68,6.16,2.92,10.87,6.71,14.15
																	c3.8,3.27,8.38,4.9,13.73,4.9c3.3,0,6.42-0.61,9.33-1.85c2.93-1.25,5.42-2.93,7.48-5.04
																	c2.05-2.12,3.42-4.49,4.1-7.1h13.92c-0.93,4.67-3,8.91-6.21,12.71c-3.21,3.79-7.26,6.79-12.15,9
																	c-4.88,2.21-10.37,3.31-16.48,3.31c-4.97,0-9.56-0.87-13.77-2.6c-4.2-1.75-7.85-4.17-10.96-7.25
																	s-5.53-6.66-7.25-10.73C89.76-1.43,88.91-5.8,88.91-10.47z M103.76-18.03h39.69c-1.12-3.8-2.77-6.78-4.92-8.92
																	c-2.14-2.15-4.54-3.69-7.19-4.62c-2.64-0.93-5.27-1.4-7.9-1.4c-4.72,0-8.86,1.29-12.42,3.87
																	C107.49-26.51,105.06-22.82,103.76-18.03z"/>
															</g>
														</g>
													</g>
													<g>
														<g transform="translate(307.026585, 66.907355)">
															<g>
																<path class="st3" d="M107.68,3.64c0-7.04,2.81-12.34,8.44-15.92c5.64-3.58,14.06-6.15,25.27-7.71l12.79-1.79
																	c0-1.61-0.41-3.26-1.21-4.94c-0.81-1.68-2.14-3.09-3.98-4.25c-1.83-1.15-4.31-1.73-7.42-1.73
																	c-2.74,0-5.32,0.39-7.75,1.17c-2.43,0.78-4.4,2.1-5.9,3.98c-1.49,1.86-2.23,4.47-2.23,7.83h-14
																	c0-4.29,0.82-7.98,2.46-11.06c1.65-3.08,3.88-5.6,6.69-7.56c2.8-1.96,5.99-3.39,9.56-4.29
																	c3.58-0.9,7.34-1.35,11.27-1.35c5.65,0,10.22,0.83,13.71,2.48c3.48,1.64,6.15,3.79,7.98,6.44
																	c1.84,2.64,3.11,5.47,3.79,8.5c0.68,3.02,1.02,5.89,1.02,8.62V3.72c0,2.81,0.31,4.74,0.94,5.79
																	c0.62,1.06,1.88,1.58,3.75,1.58h0.92V22.3h-0.92c-3.93,0-6.99-0.54-9.17-1.62c-2.18-1.09-3.7-2.98-4.54-5.65
																	c-0.83-2.68-1.25-6.45-1.25-11.31h-2.79c-0.93,3.79-2.68,7.17-5.23,10.13c-2.56,2.96-5.62,5.28-9.21,6.96
																	c-3.57,1.68-7.35,2.52-11.33,2.52c-3.68,0-7.19-0.67-10.52-2c-3.32-1.33-6.01-3.44-8.06-6.33
																	C108.7,12.09,107.68,8.3,107.68,3.64z M121.68,3.64c0,1.56,0.39,3.12,1.17,4.71c0.78,1.58,2.07,2.93,3.88,4.02
																	c1.8,1.08,4.23,1.62,7.29,1.62c1.62,0,3.36-0.31,5.23-0.94c1.86-0.62,3.72-1.79,5.58-3.5
																	c1.88-1.71,3.64-4.18,5.29-7.42c1.65-3.23,3.04-7.44,4.17-12.6l-12.9,1.67c-5.54,0.7-9.73,1.73-12.56,3.1
																	c-2.83,1.36-4.74,2.87-5.71,4.52C122.15,0.48,121.68,2.08,121.68,3.64z"/>
															</g>
														</g>
													</g>
													<g>
														<g transform="translate(360.674411, 66.907355)">
															<g>
																<path class="st3" d="M125.56,22.3v-65.35h14l-2.79,19.23h2.79c1.07-4.67,2.83-8.4,5.29-11.21
																	c2.46-2.8,5.43-4.84,8.92-6.1c3.48-1.28,7.22-1.92,11.21-1.92c3.04,0,6.08,0.47,9.12,1.4
																	c3.05,0.93,5.86,2.55,8.42,4.85c2.55,2.31,4.61,5.53,6.17,9.67c1.55,4.14,2.33,9.45,2.33,15.92V22.3h-14v-33.52
																	c0-5.42-0.74-9.61-2.21-12.6c-1.46-2.98-3.44-5.07-5.94-6.25c-2.49-1.19-5.31-1.79-8.48-1.79
																	c-2.56,0-5.06,0.33-7.52,1c-2.46,0.66-4.69,1.74-6.69,3.27c-1.99,1.52-3.57,3.61-4.75,6.29s-1.77,6.04-1.77,10.08
																	l-0.1,33.52C139.56,22.3,125.56,22.3,125.56,22.3z"/>
															</g>
														</g>
													</g>
													<g>
														<g transform="translate(0.827712, 139.862091)">
															<g>
																<path class="st3" d="M19.61,46.62v-84.04h-14v84.04H19.61z"/>
															</g>
														</g>
													</g>
													<g>
														<g transform="translate(15.395282, 139.862091)">
															<g>
																<path class="st3" d="M10.47,46.62v-65.35h13.92L21.57,0.5h2.81c1.61-7.04,4.34-12.01,8.21-14.9
																	c3.86-2.89,8.34-4.33,13.46-4.33c2.18,0,4.4,0.3,6.67,0.9c2.28,0.58,4.44,1.59,6.5,3.02
																	c2.05,1.43,3.86,3.39,5.42,5.88c1.55,2.49,2.67,5.64,3.35,9.44h2.15c1.62-7.04,4.36-12.01,8.21-14.9
																	c3.86-2.89,8.34-4.33,13.46-4.33c2.8,0,5.61,0.47,8.44,1.4s5.45,2.55,7.85,4.85c2.4,2.31,4.32,5.53,5.75,9.67
																	S116,6.65,116,13.12v33.52h-14.94V13.1c0-5.42-0.56-9.61-1.69-12.6c-1.12-2.98-2.72-5.07-4.77-6.25
																	c-2.06-1.19-4.52-1.79-7.38-1.79c-2.74,0-5.41,0.6-8.02,1.79c-2.61,1.18-4.76,3.27-6.44,6.25
																	c-1.68,2.99-2.52,7.19-2.52,12.6v33.52H55.28V13.1c0-5.42-0.56-9.61-1.69-12.6c-1.11-2.98-2.7-5.07-4.75-6.25
																	c-2.06-1.19-4.52-1.79-7.38-1.79c-2.74,0-5.42,0.6-8.04,1.79c-2.61,1.18-4.76,3.27-6.44,6.25
																	c-1.68,2.99-2.52,7.19-2.52,12.6l-0.08,33.52C24.38,46.62,10.47,46.62,10.47,46.62z"/>
															</g>
														</g>
													</g>
													<g>
														<g transform="translate(98.598457, 139.862091)">
															<g>
																<path class="st3" d="M52.2,74.64h-14v-93.38h14L49.41-1.19h2.79c1.75-6.84,4.72-11.79,8.92-14.83
																	c4.21-3.05,9.3-4.58,15.27-4.58c4.61,0,8.91,0.88,12.9,2.62c3.98,1.74,7.51,4.15,10.58,7.23
																	c3.08,3.08,5.48,6.67,7.19,10.75c1.72,4.07,2.58,8.44,2.58,13.1c0,4.61-0.86,8.94-2.58,12.98
																	c-1.71,4.04-4.1,7.6-7.19,10.69c-3.07,3.08-6.6,5.5-10.58,7.25c-3.99,1.74-8.29,2.6-12.9,2.6
																	c-5.97,0-11.06-1.49-15.27-4.48c-4.2-2.98-7.17-7.9-8.92-14.75l-2.79,0.19l2.79,19.04
																	C52.2,46.62,52.2,74.64,52.2,74.64z M52.2,13.1c0,7.35,2.04,12.89,6.12,16.62c4.08,3.74,9.79,5.6,17.13,5.6
																	c4.55,0,8.3-1.03,11.25-3.08c2.96-2.05,5.17-4.78,6.62-8.17c1.47-3.4,2.21-7.09,2.21-11.08
																	c0-4.04-0.74-7.77-2.21-11.19c-1.46-3.43-3.67-6.19-6.62-8.27C83.75-8.55,80-9.59,75.45-9.59
																	c-7.33,0-13.04,2.02-17.13,6.06S52.2,6.06,52.2,13.1z"/>
															</g>
														</g>
													</g>
													<g>
														<g transform="translate(156.238354, 139.862091)">
															<g>
																<path class="st3" d="M57.41,27.95c0-7.04,2.81-12.34,8.44-15.92c5.64-3.58,14.06-6.15,25.27-7.71l12.79-1.79
																	c0-1.61-0.41-3.26-1.21-4.94c-0.81-1.68-2.14-3.09-3.98-4.25c-1.83-1.15-4.31-1.73-7.42-1.73
																	c-2.74,0-5.32,0.39-7.75,1.17s-4.4,2.1-5.9,3.98c-1.49,1.86-2.23,4.47-2.23,7.83h-14c0-4.29,0.82-7.98,2.46-11.06
																	c1.65-3.08,3.88-5.6,6.69-7.56c2.8-1.96,5.99-3.39,9.56-4.29c3.58-0.9,7.34-1.35,11.27-1.35
																	c5.65,0,10.22,0.83,13.71,2.48c3.48,1.64,6.15,3.79,7.98,6.44c1.84,2.64,3.11,5.47,3.79,8.5
																	c0.68,3.02,1.02,5.89,1.02,8.62v21.67c0,2.81,0.31,4.74,0.94,5.79c0.62,1.06,1.88,1.58,3.75,1.58h0.92v11.21h-0.92
																	c-3.93,0-6.99-0.54-9.17-1.62c-2.18-1.09-3.7-2.98-4.54-5.65c-0.83-2.68-1.25-6.45-1.25-11.31h-2.79
																	c-0.93,3.79-2.68,7.17-5.23,10.12c-2.56,2.96-5.62,5.28-9.21,6.96c-3.57,1.68-7.35,2.52-11.33,2.52
																	c-3.68,0-7.19-0.67-10.52-2c-3.32-1.33-6.01-3.44-8.06-6.33C58.44,36.41,57.41,32.62,57.41,27.95z M71.41,27.95
																	c0,1.56,0.39,3.12,1.17,4.71c0.78,1.58,2.07,2.93,3.88,4.02c1.8,1.08,4.23,1.62,7.29,1.62
																	c1.62,0,3.36-0.31,5.23-0.94c1.86-0.62,3.72-1.79,5.58-3.5c1.88-1.71,3.64-4.18,5.29-7.42
																	c1.65-3.23,3.04-7.44,4.17-12.6l-12.9,1.67c-5.54,0.7-9.73,1.73-12.56,3.1c-2.83,1.36-4.74,2.87-5.71,4.52
																	C71.89,24.8,71.41,26.4,71.41,27.95z"/>
															</g>
														</g>
													</g>
													<g>
														<g transform="translate(209.88618, 139.862091)">
															<g>
																<path class="st3" d="M75.3,14.04c0-4.61,0.8-8.95,2.42-13.02c1.62-4.08,3.9-7.68,6.81-10.79
																	c2.93-3.11,6.35-5.53,10.27-7.27c3.93-1.75,8.17-2.62,12.71-2.62c6.72,0,12.4,1.28,17.04,3.83
																	c4.64,2.54,8.21,5.91,10.73,10.08c2.53,4.17,3.95,8.71,4.27,13.62h-14.21c-0.81-5.42-2.81-9.15-6.02-11.21
																	c-3.2-2.05-7.14-3.08-11.81-3.08c-3.92,0-7.23,0.97-9.94,2.9S92.8,0.93,91.4,4.04c-1.41,3.11-2.1,6.45-2.1,10
																	c0,3.61,0.7,6.96,2.1,10.04c1.4,3.07,3.46,5.54,6.17,7.42c2.71,1.86,6.02,2.79,9.94,2.79
																	c4.68,0,8.61-1.05,11.81-3.17c3.21-2.11,5.21-5.69,6.02-10.73h14.21c-0.32,4.92-1.74,9.43-4.27,13.54
																	c-2.52,4.1-6.09,7.4-10.73,9.9c-4.64,2.49-10.32,3.73-17.04,3.73c-4.54,0-8.78-0.85-12.71-2.56
																	c-3.92-1.72-7.34-4.11-10.27-7.19c-2.92-3.08-5.19-6.65-6.81-10.69C76.1,23.07,75.3,18.7,75.3,14.04z"/>
															</g>
														</g>
													</g>
													<g>
														<g transform="translate(262.133286, 139.862091)">
															<g>
																<path class="st3" d="M132.86-4.73h-15.88v32.5c0,2.79,0.42,4.77,1.25,5.92c0.84,1.16,2.8,1.73,5.85,1.73h4.1v11.21
																	h-4.1c-4.49,0-8.14-0.31-10.94-0.94c-2.79-0.62-4.93-1.63-6.4-3.02c-1.46-1.4-2.45-3.33-2.98-5.79
																	c-0.53-2.46-0.79-5.49-0.79-9.1v-32.5H92.71V-15h10.27v-22.31h14V-15h15.88V-4.73z"/>
															</g>
														</g>
													</g>
													<g>
														<g transform="translate(0.827712, 212.816828)">
															<g>
																<path class="st3" d="M41.09,71.88c-8.28,0-15.04-1.35-20.27-4.06c-5.22-2.71-9.06-6.41-11.52-11.1
																	C6.84,52,5.61,46.63,5.61,40.58h14.38c0,5.61,1.8,9.82,5.42,12.63C29.02,56,34.25,57.4,41.1,57.4
																	c6.09,0,10.65-0.92,13.67-2.75c3.03-1.83,4.54-4.4,4.54-7.71c0-2.36-0.59-4.27-1.77-5.73
																	c-1.18-1.47-2.74-2.59-4.67-3.38c-1.93-0.78-4.02-1.32-6.25-1.62l-13.35-1.88c-5.29-0.75-9.91-2.21-13.83-4.37
																	c-3.92-2.18-6.95-4.98-9.1-8.4C8.2,18.13,7.13,14.17,7.13,9.68c0-2.8,0.65-5.63,1.96-8.46
																	c1.3-2.83,3.23-5.4,5.79-7.69c2.55-2.3,5.71-4.15,9.48-5.52c3.76-1.38,8.1-2.06,13.02-2.06
																	c6.42,0,11.77,0.83,16.06,2.48c4.29,1.66,7.69,3.89,10.21,6.69c2.53,2.79,4.33,5.95,5.42,9.48
																	c1.09,3.52,1.65,7.17,1.65,10.96l-14.1,0.1c0-2-0.24-3.92-0.71-5.75c-0.46-1.83-1.38-3.51-2.75-5.04
																	c-1.36-1.53-3.31-2.72-5.83-3.58c-2.52-0.88-5.83-1.31-9.94-1.31c-3.86,0-6.99,0.49-9.4,1.46
																	c-2.39,0.96-4.14,2.19-5.23,3.69c-1.08,1.49-1.62,3.01-1.62,4.56c0,2.86,1.07,5.37,3.21,7.52
																	c2.15,2.14,5.13,3.46,8.94,3.96l13.35,1.88c6.53,0.86,11.75,2.51,15.67,4.94c3.93,2.43,6.76,5.41,8.5,8.94
																	c1.75,3.52,2.62,7.42,2.62,11.71c0,2.99-0.53,5.87-1.58,8.65c-1.06,2.77-2.8,5.25-5.23,7.46s-5.74,3.95-9.92,5.23
																	C52.51,71.24,47.31,71.88,41.09,71.88z"/>
															</g>
														</g>
													</g>
													<g>
														<g transform="translate(55.736213, 212.816828)">
															<g>
																<path class="st3" d="M37.91,98.96h-14V5.58h14l-2.79,17.54h2.79c1.75-6.84,4.72-11.79,8.92-14.83
																	c4.21-3.05,9.3-4.58,15.27-4.58c4.61,0,8.91,0.87,12.9,2.63c3.98,1.74,7.51,4.15,10.58,7.23
																	c3.08,3.08,5.48,6.67,7.19,10.75c1.72,4.07,2.58,8.44,2.58,13.1c0,4.61-0.86,8.94-2.58,12.98
																	c-1.71,4.04-4.1,7.6-7.19,10.69c-3.07,3.08-6.6,5.5-10.58,7.25c-3.99,1.74-8.29,2.6-12.9,2.6
																	c-5.97,0-11.06-1.49-15.27-4.48c-4.2-2.98-7.17-7.9-8.92-14.75l-2.79,0.19l2.79,19.04
																	C37.91,70.94,37.91,98.96,37.91,98.96z M37.91,37.42c0,7.35,2.04,12.89,6.12,16.62c4.08,3.74,9.79,5.6,17.12,5.6
																	c4.55,0,8.3-1.03,11.25-3.08c2.96-2.05,5.17-4.78,6.63-8.17c1.47-3.4,2.21-7.09,2.21-11.08
																	c0-4.04-0.74-7.77-2.21-11.19c-1.46-3.43-3.67-6.19-6.63-8.27c-2.95-2.08-6.7-3.12-11.25-3.12
																	c-7.33,0-13.04,2.02-17.12,6.06S37.91,30.38,37.91,37.42z"/>
															</g>
														</g>
													</g>
													<g>
														<g transform="translate(113.37611, 212.816828)">
															<g>
																<path class="st3" d="M43.13,70.94V5.58h14l-2.79,19.23h2.79c1.07-4.67,2.81-8.4,5.23-11.21
																	c2.43-2.8,5.31-4.84,8.65-6.1c3.33-1.28,6.83-1.92,10.5-1.92v11.19c-4.6,0-8.74,0.6-12.42,1.79
																	c-3.67,1.18-6.56,3.27-8.69,6.25c-2.11,2.99-3.17,7.19-3.17,12.6l-0.1,33.52h-14V70.94z"/>
															</g>
														</g>
													</g>
													<g>
														<g transform="translate(146.223152, 212.816828)">
															<g>
																<path class="st3" d="M55.1,70.94V5.58h14.02v65.35H55.1V70.94z M54.07-5.17l8.04-7.94l7.94,7.94l-7.94,7.94
																	L54.07-5.17z"/>
															</g>
														</g>
													</g>
													<g>
														<g transform="translate(162.261483, 212.816828)">
															<g>
																<path class="st3" d="M59.42,70.94V5.58h14l-2.79,19.23h2.79c1.07-4.67,2.83-8.4,5.29-11.21
																	c2.46-2.8,5.43-4.84,8.92-6.1c3.48-1.28,7.22-1.92,11.21-1.92c3.04,0,6.08,0.47,9.12,1.4
																	c3.05,0.93,5.86,2.55,8.42,4.85c2.55,2.31,4.61,5.53,6.17,9.67c1.55,4.14,2.33,9.45,2.33,15.92v33.52h-14V37.42
																	c0-5.42-0.74-9.61-2.21-12.6c-1.46-2.98-3.44-5.07-5.94-6.25c-2.49-1.19-5.31-1.79-8.48-1.79
																	c-2.56,0-5.06,0.33-7.52,1c-2.46,0.66-4.69,1.74-6.69,3.27c-1.99,1.52-3.57,3.61-4.75,6.29s-1.77,6.04-1.77,10.08
																	l-0.1,33.52H59.42z"/>
															</g>
														</g>
													</g>
													<g>
														<g transform="translate(215.419053, 212.816828)">
															<g>
																<path class="st3" d="M117.29,19.58h-15.88v32.5c0,2.79,0.42,4.77,1.25,5.92c0.84,1.16,2.8,1.73,5.85,1.73h4.1v11.21
																	h-4.1c-4.49,0-8.14-0.31-10.94-0.94c-2.79-0.62-4.93-1.63-6.4-3.02c-1.46-1.4-2.45-3.33-2.98-5.79
																	c-0.53-2.46-0.79-5.49-0.79-9.1v-32.5H77.14V9.31h10.27V-13h14V9.31h15.88V19.58z"/>
															</g>
														</g>
													</g>
												</g>
											</g>
										</g>
									</g>
								</g>
							</g>
						</g>
						<g>
							<g transform="translate(0, 309.170156)">
								<g>
									<path class="st3" d="M5.72,47.87c0-6.47,1.35-12.07,4.06-16.79c2.72-4.74,6.52-8.4,11.4-10.95
										c4.83-2.53,10.41-3.8,16.73-3.8c6.35,0,11.86,1.05,16.54,3.14c4.77,2.13,8.47,5.22,11.12,9.28
										c2.65,4.06,3.97,8.87,3.97,14.45c0,3.88-0.85,7.2-2.54,9.97c-1.65,2.7-3.89,5.03-6.7,7.01c-2.71,1.9-5.74,3.58-9.09,5.03
										c-3.26,1.41-6.64,2.79-10.15,4.14c-3.45,1.32-6.77,2.74-9.96,4.24c-3.12,1.47-5.93,3.19-8.44,5.16
										c-2.42,1.91-4.34,4.18-5.74,6.82c-1.39,2.61-2.08,5.79-2.08,9.54h-1.75v-1.75h56v11.44H2.92v-9.69
										c0-5.1,0.81-9.52,2.43-13.26c1.62-3.73,3.83-6.92,6.61-9.54c2.72-2.56,5.77-4.77,9.14-6.61c3.31-1.81,6.74-3.4,10.3-4.77
										l10.09-3.83c3.17-1.19,6.04-2.45,8.58-3.79c2.41-1.26,4.29-2.73,5.67-4.41c1.26-1.55,1.9-3.45,1.9-5.71
										c0-5.22-1.6-9.07-4.79-11.55c-3.33-2.59-8.31-3.88-14.94-3.88c-6.51,0-11.52,1.68-15.04,5.03
										c-3.5,3.33-5.24,8.35-5.24,15.07v1.75H5.72V47.87z M9.22,47.87H7.47v-1.75h8.41v1.75h-1.76c0-7.72,2.11-13.59,6.33-17.61
										c4.2-3.99,10.02-5.99,17.45-5.99s13.13,1.54,17.09,4.61c4.09,3.18,6.14,7.96,6.14,14.32c0,3.09-0.9,5.73-2.68,7.92
										c-1.68,2.05-3.93,3.82-6.76,5.3c-2.68,1.41-5.67,2.72-8.97,3.96L32.65,64.2c-3.42,1.31-6.7,2.83-9.88,4.57
										c-3.1,1.7-5.91,3.73-8.42,6.09c-2.44,2.29-4.38,5.09-5.8,8.39C7.12,86.54,6.4,90.49,6.4,95.11v7.94H4.67v-1.75h62.66v1.75
										h-1.76v-7.94h1.76v1.75h-56v-1.75c0-4.34,0.83-8.07,2.49-11.19c1.64-3.08,3.86-5.72,6.68-7.93
										c2.71-2.14,5.76-3.99,9.11-5.58c3.28-1.54,6.68-2.99,10.2-4.34c3.46-1.33,6.8-2.69,10.02-4.08
										c3.13-1.35,5.95-2.91,8.47-4.68c2.42-1.69,4.32-3.69,5.72-5.97c1.35-2.21,2.03-4.92,2.03-8.14c0-4.89-1.14-9.06-3.4-12.54
										c-2.27-3.48-5.48-6.15-9.61-7.99c-4.22-1.89-9.26-2.84-15.11-2.84c-5.75,0-10.79,1.14-15.1,3.4
										c-4.28,2.24-7.6,5.44-9.98,9.59C10.42,37,9.22,42.02,9.22,47.87z"/>
								</g>
							</g>
						</g>
						<g>
							<g transform="translate(54.338362, 309.170156)">
								<g>
									<path class="st3" d="M56.86,104.81c-6.64,0-12.57-1.73-17.78-5.19c-5.2-3.45-9.28-8.46-12.25-15.02
										c-2.94-6.49-4.41-14.34-4.41-23.55c0-9.28,1.47-17.15,4.41-23.6c2.97-6.53,7.05-11.52,12.25-14.97
										c5.21-3.46,11.14-5.2,17.78-5.2c6.58,0,12.46,1.73,17.64,5.2c5.16,3.45,9.23,8.44,12.2,14.97
										c2.94,6.46,4.41,14.32,4.41,23.6c0,9.21-1.47,17.06-4.41,23.55c-2.97,6.56-7.04,11.56-12.2,15.02
										C69.32,103.07,63.44,104.81,56.86,104.81z M56.86,101.31c5.87,0,11.1-1.54,15.69-4.61c4.61-3.08,8.26-7.6,10.96-13.55
										c2.72-6.03,4.09-13.4,4.09-22.1c0-8.78-1.36-16.16-4.09-22.15c-2.7-5.92-6.35-10.43-10.96-13.51
										c-4.59-3.07-9.82-4.6-15.69-4.6c-5.94,0-11.21,1.54-15.84,4.61c-4.64,3.08-8.31,7.58-11,13.51
										c-2.73,5.99-4.09,13.38-4.09,22.15c0,8.71,1.36,16.08,4.09,22.1c2.69,5.95,6.36,10.47,11,13.55
										C45.65,99.77,50.93,101.31,56.86,101.31z M34.34,61.04c0,10.73,1.77,18.78,5.31,24.15c3.39,5.14,9.12,7.71,17.21,7.71
										c8.02,0,13.71-2.57,17.07-7.7c3.52-5.37,5.27-13.43,5.27-24.16s-1.76-18.79-5.27-24.16c-3.36-5.14-9.05-7.7-17.07-7.7
										c-8.09,0-13.82,2.57-17.21,7.71C36.11,42.26,34.34,50.31,34.34,61.04z M30.84,61.04c0-11.43,1.96-20.12,5.89-26.08
										c4.08-6.19,10.79-9.28,20.14-9.28c9.28,0,15.95,3.09,20,9.29c3.89,5.96,5.84,14.65,5.84,26.08s-1.95,20.12-5.84,26.07
										c-4.05,6.19-10.72,9.29-20,9.29c-9.34,0-16.06-3.09-20.14-9.29C32.8,81.16,30.84,72.47,30.84,61.04z"/>
								</g>
							</g>
						</g>
						<g>
							<g transform="translate(112.317957, 309.170156)">
								<g>
									<path class="st3" d="M43.16,47.87c0-6.47,1.35-12.07,4.06-16.79c2.72-4.74,6.52-8.4,11.4-10.95
										c4.83-2.53,10.41-3.8,16.73-3.8c6.35,0,11.86,1.05,16.54,3.14c4.77,2.13,8.47,5.22,11.12,9.28s3.97,8.87,3.97,14.45
										c0,3.88-0.85,7.2-2.54,9.97c-1.65,2.7-3.89,5.03-6.7,7.01c-2.71,1.9-5.74,3.58-9.09,5.03c-3.26,1.41-6.64,2.79-10.15,4.14
										c-3.45,1.32-6.77,2.74-9.96,4.24c-3.12,1.47-5.93,3.19-8.44,5.16c-2.42,1.91-4.34,4.18-5.74,6.82
										c-1.39,2.61-2.08,5.79-2.08,9.54h-1.75v-1.75h56v11.44H40.36v-9.69c0-5.1,0.81-9.52,2.43-13.26
										c1.62-3.73,3.83-6.92,6.61-9.54c2.72-2.56,5.77-4.77,9.14-6.61c3.31-1.81,6.74-3.4,10.3-4.77l10.09-3.83
										c3.17-1.19,6.04-2.45,8.58-3.79c2.41-1.26,4.29-2.73,5.67-4.41c1.26-1.55,1.9-3.45,1.9-5.71c0-5.22-1.6-9.07-4.79-11.55
										c-3.33-2.59-8.31-3.88-14.94-3.88c-6.51,0-11.52,1.68-15.04,5.03c-3.5,3.33-5.24,8.35-5.24,15.07v1.75H43.16V47.87z
										 M46.66,47.87h-1.75v-1.75h8.41v1.75h-1.76c0-7.72,2.11-13.59,6.33-17.61c4.2-3.99,10.02-5.99,17.45-5.99
										s13.13,1.54,17.09,4.61c4.09,3.18,6.14,7.96,6.14,14.32c0,3.09-0.9,5.73-2.68,7.92c-1.68,2.05-3.93,3.82-6.76,5.3
										c-2.68,1.41-5.67,2.72-8.97,3.96L70.1,64.21c-3.42,1.31-6.7,2.83-9.88,4.57c-3.1,1.7-5.91,3.73-8.42,6.09
										c-2.44,2.29-4.38,5.09-5.8,8.39c-1.43,3.29-2.15,7.24-2.15,11.86v7.94H42.1v-1.75h62.66v1.75H103v-7.94h1.76v1.75h-56
										v-1.75c0-4.34,0.83-8.07,2.49-11.19c1.64-3.08,3.86-5.72,6.68-7.93c2.71-2.14,5.76-3.99,9.11-5.58
										c3.28-1.54,6.68-2.99,10.2-4.34c3.46-1.33,6.8-2.69,10.02-4.08c3.13-1.35,5.95-2.91,8.47-4.68
										c2.42-1.69,4.32-3.69,5.72-5.97c1.35-2.21,2.03-4.92,2.03-8.14c0-4.89-1.14-9.06-3.4-12.54c-2.27-3.48-5.48-6.15-9.61-7.99
										c-4.22-1.89-9.26-2.84-15.11-2.84c-5.75,0-10.79,1.14-15.1,3.4c-4.28,2.24-7.6,5.44-9.98,9.59
										C47.86,37,46.66,42.02,46.66,47.87z"/>
								</g>
							</g>
						</g>
						<g>
							<g transform="translate(166.65632, 309.170156)">
								<g>
									<path class="st3" d="M58.47,59.72c0.06-10.02,1.06-18.02,2.98-24.01c1.98-6.18,4.93-10.71,8.84-13.61
										c3.89-2.88,8.6-4.51,14.14-4.87c5.34-0.35,11.38,0.08,18.12,1.29l7.98,1.36v11.49l-8.58-1.47
										c-5.8-1.04-10.67-1.48-14.62-1.33c-3.74,0.15-6.76,0.98-9.04,2.51c-2.24,1.51-3.97,3.84-5.17,7.02
										c-1.28,3.35-2.1,7.74-2.46,13.17l-1.74-0.12V49.4H84.7c6.26,0,11.42,0.79,15.48,2.36c4.14,1.6,7.39,3.79,9.76,6.57
										c2.35,2.75,3.99,5.87,4.94,9.36c0.91,3.39,1.36,6.9,1.36,10.54c0,4.9-0.85,9.41-2.56,13.51c-1.76,4.24-4.7,7.64-8.81,10.2
										c-4.08,2.54-9.56,3.81-16.43,3.81c-6.89,0-12.57-1.52-17.04-4.55c-4.51-3.06-7.82-8.03-9.93-14.9
										C59.4,79.66,58.41,70.8,58.47,59.72z M61.97,59.74c-0.06,10.71,0.88,19.22,2.82,25.53c1.88,6.08,4.72,10.42,8.56,13.03
										c3.87,2.63,8.9,3.94,15.07,3.94c6.2,0,11.06-1.09,14.58-3.28c3.48-2.17,5.95-5.03,7.43-8.57
										c1.53-3.67,2.29-7.73,2.29-12.17c0-3.33-0.42-6.54-1.24-9.62c-0.81-2.98-2.21-5.65-4.22-8.01
										c-1.99-2.33-4.77-4.18-8.36-5.57c-3.66-1.42-8.39-2.12-14.21-2.12H67.03l0.12-1.87c0.39-5.78,1.28-10.51,2.68-14.18
										c1.47-3.86,3.64-6.76,6.5-8.68c2.83-1.9,6.44-2.93,10.85-3.09c4.2-0.16,9.32,0.3,15.35,1.38l6.54,1.12l-0.29,1.72h-1.76
										v-7.93h1.76l-0.3,1.72l-6.55-1.12c-6.46-1.16-12.21-1.57-17.27-1.23c-4.86,0.32-8.95,1.71-12.29,4.19
										c-3.31,2.45-5.84,6.41-7.59,11.87C62.97,42.44,62.03,50.09,61.97,59.74z M70.38,59.74c-0.06,7.55,0.33,13.65,1.19,18.3
										c0.83,4.53,2.03,7.98,3.61,10.36c1.51,2.27,3.31,3.81,5.42,4.6c2.26,0.86,4.87,1.29,7.83,1.29c5.78,0,9.87-1.28,12.26-3.83
										c2.43-2.59,3.64-6.67,3.64-12.25c0-2.93-0.22-5.53-0.67-7.78c-0.41-2.06-1.22-3.8-2.45-5.21c-1.21-1.4-3.07-2.46-5.57-3.2
										c-2.67-0.8-6.32-1.19-10.94-1.19H68.63v-1.75h1.75V59.74z M66.88,59.73v-2.41h17.81c4.96,0,8.94,0.44,11.94,1.33
										c3.16,0.94,5.57,2.36,7.22,4.27c1.64,1.89,2.72,4.16,3.24,6.83c0.49,2.47,0.73,5.3,0.73,8.46c0,6.5-1.53,11.38-4.58,14.65
										c-3.08,3.29-8.02,4.94-14.82,4.94c-3.39,0-6.41-0.51-9.07-1.52c-2.81-1.07-5.18-3.05-7.09-5.95
										c-1.84-2.78-3.22-6.67-4.14-11.67c-0.89-4.87-1.3-11.19-1.24-18.96V59.73z"/>
								</g>
							</g>
						</g>
					</g>
				</g>
			</g>
		</g>
	</g>
</g>
</svg>
