<?xml version="1.0" encoding="UTF-8"?>
<svg id="Ebene_1" data-name="Ebene 1" xmlns="http://www.w3.org/2000/svg" xmlns:xlink="http://www.w3.org/1999/xlink" viewBox="0 0 558.67 586.67">
  <defs>
    <style>
      .cls-1 {
        fill: none;
      }

      .cls-2 {
        clip-path: url(#clippath-1);
      }

      .cls-3 {
        clip-path: url(#clippath-3);
      }

      .cls-4 {
        clip-path: url(#clippath-4);
      }

      .cls-5 {
        clip-path: url(#clippath-2);
      }

      .cls-6 {
        fill: #fff;
      }

      .cls-7 {
        clip-path: url(#clippath);
      }
    </style>
    <clipPath id="clippath">
      <rect class="cls-1" width="558.67" height="586.67"/>
    </clipPath>
    <clipPath id="clippath-1">
      <rect class="cls-1" x="2.67" y=".38" width="555.33" height="315.62"/>
    </clipPath>
    <clipPath id="clippath-2">
      <rect class="cls-1" x="2.67" width="556" height="316"/>
    </clipPath>
    <clipPath id="clippath-3">
      <rect class="cls-1" x="2.67" y="421.33" width="476" height="164.56"/>
    </clipPath>
    <clipPath id="clippath-4">
      <rect class="cls-1" x="2.67" y="421.33" width="476" height="165.33"/>
    </clipPath>
  </defs>
  <g class="cls-7">
    <g>
      <g class="cls-2">
        <g class="cls-5">
          <g>
            <path class="cls-6" d="M68.67,5.17H8.44v84.04h60.23v-14.48H22.54v-19.79h33.15v-14.48H22.35l.19-20.81h46.13V5.17Z"/>
            <path class="cls-6" d="M140.38,23.86v65.35h-14l2.79-19.23h-2.79c-1.06,4.67-2.81,8.41-5.27,11.21-2.46,2.79-5.42,4.83-8.88,6.1-3.46,1.28-7.21,1.92-11.25,1.92-3.06,0-6.11-.46-9.17-1.4-3.04-.93-5.84-2.55-8.4-4.85-2.54-2.3-4.6-5.54-6.17-9.71-1.56-4.18-2.33-9.47-2.33-15.88V23.86h14.02v33.52c0,5.42.71,9.62,2.15,12.6,1.43,2.99,3.4,5.07,5.92,6.25,2.53,1.18,5.38,1.77,8.56,1.77,2.54,0,5.04-.32,7.5-.98,2.46-.65,4.68-1.74,6.67-3.27,2-1.53,3.59-3.63,4.77-6.29,1.19-2.68,1.79-6.04,1.79-10.08l.08-33.52h14Z"/>
            <path class="cls-6" d="M145.8,89.21V23.86h14l-2.79,19.23h2.79c1.07-4.67,2.81-8.4,5.23-11.21,2.43-2.8,5.31-4.84,8.65-6.1,3.33-1.28,6.83-1.92,10.5-1.92v11.19c-4.6,0-8.74.6-12.42,1.79-3.67,1.18-6.56,3.27-8.69,6.25-2.11,2.99-3.17,7.19-3.17,12.6l-.1,33.52h-14Z"/>
            <path class="cls-6" d="M224.43,90.15c-4.79,0-9.29-.74-13.5-2.23-4.2-1.5-7.9-3.69-11.1-6.58-3.21-2.9-5.72-6.44-7.52-10.6-1.81-4.18-2.71-8.94-2.71-14.29s.9-10.11,2.71-14.25c1.8-4.14,4.31-7.64,7.52-10.5,3.21-2.86,6.91-5.03,11.1-6.52,4.21-1.5,8.71-2.25,13.5-2.25s9.3.75,13.54,2.25c4.23,1.49,7.95,3.66,11.15,6.52,3.21,2.86,5.71,6.36,7.52,10.5,1.8,4.14,2.71,8.89,2.71,14.25s-.91,10.11-2.71,14.29c-1.81,4.17-4.31,7.7-7.52,10.6-3.2,2.89-6.91,5.08-11.15,6.58-4.24,1.48-8.75,2.23-13.54,2.23ZM203.6,56.44c0,4.17.76,7.97,2.29,11.4,1.53,3.42,3.83,6.13,6.92,8.13,3.08,1.99,6.96,2.98,11.63,2.98s8.55-.99,11.67-2.98c3.11-2,5.43-4.71,6.96-8.13,1.53-3.43,2.29-7.23,2.29-11.4s-.77-7.93-2.29-11.29c-1.53-3.38-3.85-6.05-6.96-8.04-3.11-1.98-7-2.98-11.67-2.98s-8.54.99-11.63,2.98c-3.08,1.99-5.39,4.67-6.92,8.04-1.53,3.36-2.29,7.13-2.29,11.29Z"/>
            <path class="cls-6" d="M278.77,117.23h-14V23.86h14l-2.79,17.54h2.79c1.75-6.84,4.72-11.79,8.92-14.83,4.21-3.05,9.3-4.58,15.27-4.58,4.61,0,8.91.88,12.9,2.63,3.98,1.74,7.51,4.15,10.58,7.23,3.08,3.08,5.48,6.67,7.19,10.75,1.72,4.07,2.58,8.44,2.58,13.1s-.86,8.94-2.58,12.98c-1.71,4.04-4.1,7.6-7.19,10.69-3.07,3.08-6.6,5.5-10.58,7.25-3.99,1.74-8.29,2.6-12.9,2.6-5.97,0-11.06-1.49-15.27-4.48-4.2-2.98-7.17-7.9-8.92-14.75l-2.79.19,2.79,19.04v28.02ZM278.77,55.69c0,7.35,2.04,12.89,6.13,16.63,4.08,3.74,9.79,5.6,17.13,5.6,4.55,0,8.3-1.03,11.25-3.08,2.96-2.05,5.17-4.78,6.63-8.17,1.47-3.4,2.21-7.09,2.21-11.08s-.74-7.77-2.21-11.19c-1.46-3.43-3.67-6.19-6.63-8.27-2.95-2.08-6.7-3.13-11.25-3.13-7.33,0-13.04,2.02-17.13,6.06s-6.13,9.58-6.13,16.63Z"/>
            <path class="cls-6" d="M341.62,56.44c0-6.79,1.49-12.69,4.48-17.69,2.98-5.01,7.07-8.9,12.27-11.67,5.21-2.78,11.14-4.17,17.79-4.17,4.61,0,9.01.68,13.21,2.02,4.21,1.33,7.96,3.48,11.25,6.44,3.3,2.95,5.91,6.79,7.81,11.52,1.9,4.74,2.85,10.47,2.85,17.19h-55.56c.68,6.16,2.92,10.87,6.71,14.15,3.8,3.27,8.38,4.9,13.73,4.9,3.3,0,6.42-.61,9.33-1.85,2.93-1.25,5.42-2.93,7.48-5.04,2.05-2.13,3.42-4.49,4.1-7.1h13.92c-.93,4.67-3,8.91-6.21,12.71-3.21,3.79-7.26,6.79-12.15,9-4.88,2.21-10.37,3.31-16.48,3.31-4.97,0-9.56-.87-13.77-2.6-4.2-1.75-7.85-4.17-10.96-7.25-3.11-3.08-5.53-6.66-7.25-10.73-1.71-4.08-2.56-8.46-2.56-13.13ZM356.48,48.88h39.69c-1.13-3.8-2.77-6.78-4.92-8.92-2.14-2.15-4.54-3.69-7.19-4.63-2.64-.93-5.27-1.4-7.9-1.4-4.72,0-8.86,1.29-12.42,3.88-3.54,2.58-5.97,6.27-7.27,11.06Z"/>
            <path class="cls-6" d="M416.7,70.54c0-7.04,2.81-12.34,8.44-15.92,5.64-3.58,14.06-6.15,25.27-7.71l12.79-1.79c0-1.61-.41-3.26-1.21-4.94-.81-1.68-2.14-3.09-3.98-4.25-1.83-1.15-4.31-1.73-7.42-1.73-2.74,0-5.32.39-7.75,1.17-2.43.78-4.4,2.1-5.9,3.98-1.49,1.86-2.23,4.47-2.23,7.83h-14c0-4.29.82-7.98,2.46-11.06,1.65-3.08,3.88-5.6,6.69-7.56,2.8-1.96,5.99-3.39,9.56-4.29,3.58-.9,7.34-1.35,11.27-1.35,5.65,0,10.22.83,13.71,2.48,3.48,1.64,6.15,3.79,7.98,6.44,1.84,2.64,3.11,5.47,3.79,8.5.68,3.02,1.02,5.89,1.02,8.63v21.67c0,2.81.31,4.74.94,5.79.63,1.06,1.88,1.58,3.75,1.58h.92v11.21h-.92c-3.93,0-6.99-.54-9.17-1.63-2.18-1.09-3.7-2.98-4.54-5.65-.83-2.68-1.25-6.45-1.25-11.31h-2.79c-.93,3.79-2.68,7.17-5.23,10.13-2.56,2.96-5.63,5.28-9.21,6.96-3.57,1.68-7.35,2.52-11.33,2.52-3.68,0-7.19-.67-10.52-2-3.32-1.33-6.01-3.44-8.06-6.33-2.06-2.9-3.08-6.69-3.08-11.35ZM430.7,70.54c0,1.56.39,3.13,1.17,4.71.78,1.58,2.07,2.93,3.88,4.02,1.8,1.08,4.23,1.63,7.29,1.63,1.63,0,3.36-.31,5.23-.94,1.86-.63,3.72-1.79,5.58-3.5,1.88-1.71,3.64-4.18,5.29-7.42,1.65-3.23,3.04-7.44,4.17-12.6l-12.9,1.67c-5.54.7-9.73,1.73-12.56,3.1-2.83,1.36-4.74,2.87-5.71,4.52-.96,1.66-1.44,3.26-1.44,4.81Z"/>
            <path class="cls-6" d="M488.23,89.21V23.86h14l-2.79,19.23h2.79c1.07-4.67,2.83-8.4,5.29-11.21,2.46-2.8,5.43-4.84,8.92-6.1,3.48-1.28,7.22-1.92,11.21-1.92,3.04,0,6.08.47,9.13,1.4,3.05.93,5.86,2.55,8.42,4.85,2.55,2.31,4.61,5.53,6.17,9.67,1.55,4.14,2.33,9.45,2.33,15.92v33.52h-14v-33.52c0-5.42-.74-9.61-2.21-12.6-1.46-2.98-3.44-5.07-5.94-6.25-2.49-1.19-5.31-1.79-8.48-1.79-2.56,0-5.06.33-7.52,1-2.46.66-4.69,1.74-6.69,3.27-1.99,1.52-3.57,3.61-4.75,6.29-1.18,2.68-1.77,6.04-1.77,10.08l-.1,33.52h-14Z"/>
            <path class="cls-6" d="M22.44,186.48v-84.04h-14v84.04h14Z"/>
            <path class="cls-6" d="M27.86,186.48v-65.35h13.92l-2.81,19.23h2.81c1.61-7.04,4.34-12.01,8.21-14.9,3.86-2.89,8.34-4.33,13.46-4.33,2.18,0,4.4.3,6.67.9,2.28.58,4.44,1.59,6.5,3.02,2.05,1.43,3.86,3.39,5.42,5.88,1.55,2.49,2.67,5.64,3.35,9.44h2.15c1.63-7.04,4.36-12.01,8.21-14.9,3.86-2.89,8.34-4.33,13.46-4.33,2.8,0,5.61.47,8.44,1.4,2.83.93,5.45,2.55,7.85,4.85,2.4,2.31,4.32,5.53,5.75,9.67,1.43,4.14,2.15,9.45,2.15,15.92v33.52h-14.94v-33.52c0-5.42-.56-9.61-1.69-12.6-1.13-2.98-2.72-5.07-4.77-6.25-2.06-1.19-4.52-1.79-7.38-1.79s-5.41.6-8.02,1.79c-2.61,1.18-4.76,3.27-6.44,6.25-1.68,2.99-2.52,7.19-2.52,12.6v33.52h-14.96v-33.52c0-5.42-.56-9.61-1.69-12.6-1.11-2.98-2.7-5.07-4.75-6.25-2.06-1.19-4.52-1.79-7.38-1.79s-5.42.6-8.04,1.79c-2.61,1.18-4.76,3.27-6.44,6.25-1.68,2.99-2.52,7.19-2.52,12.6l-.08,33.52h-13.92Z"/>
            <path class="cls-6" d="M152.8,214.5h-14v-93.38h14l-2.79,17.54h2.79c1.75-6.84,4.72-11.79,8.92-14.83,4.21-3.05,9.3-4.58,15.27-4.58,4.61,0,8.91.88,12.9,2.63,3.98,1.74,7.51,4.15,10.58,7.23,3.08,3.08,5.48,6.67,7.19,10.75,1.72,4.07,2.58,8.44,2.58,13.1s-.86,8.94-2.58,12.98c-1.71,4.04-4.1,7.6-7.19,10.69-3.07,3.08-6.6,5.5-10.58,7.25-3.99,1.74-8.29,2.6-12.9,2.6-5.97,0-11.06-1.49-15.27-4.48-4.2-2.98-7.17-7.9-8.92-14.75l-2.79.19,2.79,19.04v28.02ZM152.8,152.96c0,7.35,2.04,12.89,6.13,16.63,4.08,3.74,9.79,5.6,17.13,5.6,4.55,0,8.3-1.03,11.25-3.08,2.96-2.05,5.17-4.78,6.63-8.17,1.47-3.4,2.21-7.09,2.21-11.08s-.74-7.77-2.21-11.19c-1.46-3.43-3.67-6.19-6.63-8.27-2.95-2.08-6.7-3.13-11.25-3.13-7.33,0-13.04,2.02-17.13,6.06s-6.13,9.58-6.13,16.63Z"/>
            <path class="cls-6" d="M215.65,167.82c0-7.04,2.81-12.34,8.44-15.92,5.64-3.58,14.06-6.15,25.27-7.71l12.79-1.79c0-1.61-.41-3.26-1.21-4.94-.81-1.68-2.14-3.09-3.98-4.25-1.83-1.15-4.31-1.73-7.42-1.73-2.74,0-5.32.39-7.75,1.17-2.43.78-4.4,2.1-5.9,3.98-1.49,1.86-2.23,4.47-2.23,7.83h-14c0-4.29.82-7.98,2.46-11.06,1.65-3.08,3.88-5.6,6.69-7.56,2.8-1.96,5.99-3.39,9.56-4.29,3.58-.9,7.34-1.35,11.27-1.35,5.65,0,10.22.83,13.71,2.48,3.48,1.64,6.15,3.79,7.98,6.44,1.84,2.64,3.11,5.47,3.79,8.5.68,3.02,1.02,5.89,1.02,8.63v21.67c0,2.81.31,4.74.94,5.79.63,1.06,1.88,1.58,3.75,1.58h.92v11.21h-.92c-3.93,0-6.99-.54-9.17-1.63-2.18-1.09-3.7-2.98-4.54-5.65-.83-2.68-1.25-6.45-1.25-11.31h-2.79c-.93,3.79-2.68,7.17-5.23,10.13-2.56,2.96-5.63,5.28-9.21,6.96-3.57,1.68-7.35,2.52-11.33,2.52-3.68,0-7.19-.67-10.52-2-3.32-1.33-6.01-3.44-8.06-6.33-2.06-2.9-3.08-6.69-3.08-11.35ZM229.65,167.82c0,1.56.39,3.13,1.17,4.71.78,1.58,2.07,2.93,3.88,4.02,1.8,1.08,4.23,1.63,7.29,1.63,1.63,0,3.36-.31,5.23-.94,1.86-.63,3.72-1.79,5.58-3.5,1.88-1.71,3.64-4.18,5.29-7.42,1.65-3.23,3.04-7.44,4.17-12.6l-12.9,1.67c-5.54.7-9.73,1.73-12.56,3.1-2.83,1.36-4.74,2.87-5.71,4.52-.96,1.66-1.44,3.26-1.44,4.81Z"/>
            <path class="cls-6" d="M287.18,153.9c0-4.61.8-8.95,2.42-13.02,1.63-4.08,3.9-7.68,6.81-10.79,2.93-3.11,6.35-5.53,10.27-7.27,3.93-1.75,8.17-2.63,12.71-2.63,6.72,0,12.4,1.28,17.04,3.83,4.64,2.54,8.21,5.91,10.73,10.08,2.53,4.17,3.95,8.71,4.27,13.63h-14.21c-.81-5.42-2.81-9.15-6.02-11.21-3.2-2.05-7.14-3.08-11.81-3.08-3.92,0-7.23.97-9.94,2.9-2.71,1.93-4.77,4.45-6.17,7.56-1.41,3.11-2.1,6.45-2.1,10s.7,6.96,2.1,10.04c1.4,3.07,3.46,5.54,6.17,7.42,2.71,1.86,6.02,2.79,9.94,2.79,4.68,0,8.61-1.05,11.81-3.17,3.21-2.11,5.21-5.69,6.02-10.73h14.21c-.32,4.92-1.74,9.43-4.27,13.54-2.52,4.1-6.09,7.4-10.73,9.9-4.64,2.49-10.32,3.73-17.04,3.73-4.54,0-8.78-.85-12.71-2.56-3.92-1.72-7.34-4.11-10.27-7.19-2.92-3.08-5.19-6.65-6.81-10.69-1.61-4.05-2.42-8.42-2.42-13.08Z"/>
            <path class="cls-6" d="M396.99,135.13h-15.88v32.5c0,2.79.42,4.77,1.25,5.92.84,1.16,2.8,1.73,5.85,1.73h4.1v11.21h-4.1c-4.49,0-8.14-.31-10.94-.94-2.79-.63-4.93-1.63-6.4-3.02-1.46-1.4-2.45-3.33-2.98-5.79-.53-2.46-.79-5.49-.79-9.1v-32.5h-10.27v-10.27h10.27v-22.31h14v22.31h15.88v10.27Z"/>
            <path class="cls-6" d="M43.92,284.69c-8.28,0-15.04-1.35-20.27-4.06-5.22-2.71-9.06-6.41-11.52-11.1-2.46-4.71-3.69-10.08-3.69-16.13h14.38c0,5.61,1.8,9.82,5.42,12.63,3.61,2.79,8.84,4.19,15.69,4.19,6.09,0,10.65-.92,13.67-2.75,3.03-1.83,4.54-4.4,4.54-7.71,0-2.36-.59-4.27-1.77-5.73-1.18-1.47-2.74-2.59-4.67-3.38-1.93-.78-4.02-1.32-6.25-1.63l-13.35-1.88c-5.29-.75-9.91-2.21-13.83-4.38-3.92-2.18-6.95-4.98-9.1-8.4-2.14-3.43-3.21-7.39-3.21-11.88,0-2.8.65-5.63,1.96-8.46,1.3-2.83,3.23-5.4,5.79-7.69,2.55-2.3,5.71-4.15,9.48-5.52,3.76-1.38,8.1-2.06,13.02-2.06,6.42,0,11.77.83,16.06,2.48,4.29,1.66,7.69,3.89,10.21,6.69,2.53,2.79,4.33,5.95,5.42,9.48,1.09,3.52,1.65,7.17,1.65,10.96l-14.1.1c0-2-.24-3.92-.71-5.75-.46-1.83-1.38-3.51-2.75-5.04-1.36-1.53-3.31-2.72-5.83-3.58-2.52-.88-5.83-1.31-9.94-1.31-3.86,0-6.99.49-9.4,1.46-2.39.96-4.14,2.19-5.23,3.69-1.08,1.49-1.63,3.01-1.63,4.56,0,2.86,1.07,5.37,3.21,7.52,2.15,2.14,5.13,3.46,8.94,3.96l13.35,1.88c6.53.86,11.75,2.51,15.67,4.94,3.93,2.43,6.76,5.41,8.5,8.94,1.75,3.52,2.63,7.42,2.63,11.71,0,2.99-.53,5.87-1.58,8.65-1.06,2.77-2.8,5.25-5.23,7.46-2.43,2.21-5.74,3.95-9.92,5.23-4.17,1.28-9.36,1.92-15.58,1.92Z"/>
            <path class="cls-6" d="M95.65,311.78h-14v-93.38h14l-2.79,17.54h2.79c1.75-6.84,4.72-11.79,8.92-14.83,4.21-3.05,9.3-4.58,15.27-4.58,4.61,0,8.91.88,12.9,2.63,3.98,1.74,7.51,4.15,10.58,7.23,3.08,3.08,5.48,6.67,7.19,10.75,1.72,4.07,2.58,8.44,2.58,13.1s-.86,8.94-2.58,12.98c-1.71,4.04-4.1,7.6-7.19,10.69-3.07,3.08-6.6,5.5-10.58,7.25-3.99,1.74-8.29,2.6-12.9,2.6-5.97,0-11.06-1.49-15.27-4.48-4.2-2.98-7.17-7.9-8.92-14.75l-2.79.19,2.79,19.04v28.02ZM95.65,250.23c0,7.35,2.04,12.89,6.13,16.63,4.08,3.74,9.79,5.6,17.13,5.6,4.55,0,8.3-1.03,11.25-3.08,2.96-2.05,5.17-4.78,6.63-8.17,1.47-3.4,2.21-7.09,2.21-11.08s-.74-7.77-2.21-11.19c-1.46-3.43-3.67-6.19-6.63-8.27-2.95-2.08-6.7-3.13-11.25-3.13-7.33,0-13.04,2.02-17.13,6.06s-6.13,9.58-6.13,16.63Z"/>
            <path class="cls-6" d="M158.5,283.76v-65.35h14l-2.79,19.23h2.79c1.07-4.67,2.81-8.4,5.23-11.21,2.43-2.8,5.31-4.84,8.65-6.1,3.33-1.28,6.83-1.92,10.5-1.92v11.19c-4.6,0-8.74.6-12.42,1.79-3.67,1.18-6.56,3.27-8.69,6.25-2.11,2.99-3.17,7.19-3.17,12.6l-.1,33.52h-14Z"/>
            <path class="cls-6" d="M203.32,283.76v-65.35h14.02v65.35h-14.02ZM202.3,207.65l8.04-7.94,7.94,7.94-7.94,7.94-8.04-7.94Z"/>
            <path class="cls-6" d="M223.68,283.76v-65.35h14l-2.79,19.23h2.79c1.07-4.67,2.83-8.4,5.29-11.21,2.46-2.8,5.43-4.84,8.92-6.1,3.48-1.28,7.22-1.92,11.21-1.92,3.04,0,6.08.47,9.13,1.4,3.05.93,5.86,2.55,8.42,4.85,2.55,2.31,4.61,5.53,6.17,9.67,1.55,4.14,2.33,9.45,2.33,15.92v33.52h-14v-33.52c0-5.42-.74-9.61-2.21-12.6-1.46-2.98-3.44-5.07-5.94-6.25-2.49-1.19-5.31-1.79-8.48-1.79-2.56,0-5.06.33-7.52,1-2.46.66-4.69,1.74-6.69,3.27-1.99,1.52-3.57,3.61-4.75,6.29-1.18,2.68-1.77,6.04-1.77,10.08l-.1,33.52h-14Z"/>
            <path class="cls-6" d="M334.7,232.4h-15.88v32.5c0,2.79.42,4.77,1.25,5.92.84,1.16,2.8,1.73,5.85,1.73h4.1v11.21h-4.1c-4.49,0-8.14-.31-10.94-.94-2.79-.63-4.93-1.63-6.4-3.02-1.46-1.4-2.45-3.33-2.98-5.79-.53-2.46-.79-5.49-.79-9.1v-32.5h-10.27v-10.27h10.27v-22.31h14v22.31h15.88v10.27Z"/>
          </g>
        </g>
      </g>
      <g class="cls-3">
        <g class="cls-4">
          <g>
            <path class="cls-6" d="M31.83,488.47H7.58v-5.42l9.31-9.58c2.8-2.89,4.78-5.15,5.92-6.79,1.15-1.64,1.73-3.44,1.73-5.4s-.56-3.35-1.67-4.19c-1.1-.83-2.91-1.25-5.42-1.25-2.36,0-4.97.27-7.81.79l-1.42.23-.42-5.02c3.69-1.09,7.52-1.65,11.48-1.65,7.88,0,11.81,3.5,11.81,10.5,0,2.74-.6,5.11-1.81,7.13-1.2,2.02-3.33,4.45-6.42,7.29l-8.04,7.81h17v5.54Z"/>
            <path class="cls-6" d="M63.31,450.82v5.58h-17.46l-.96,9.94c2.58-1.18,5.13-1.77,7.65-1.77,8.05,0,12.08,3.77,12.08,11.29,0,4.27-1.11,7.54-3.33,9.81-2.22,2.28-5.37,3.42-9.44,3.42-1.71,0-3.65-.16-5.81-.48-2.17-.32-3.91-.63-5.21-.94l-1.94-.52.69-4.79c4.48.77,8.32,1.15,11.52,1.15,2.21,0,3.92-.6,5.13-1.81,1.22-1.22,1.83-2.96,1.83-5.21s-.54-3.86-1.6-4.85c-1.06-.98-2.44-1.48-4.15-1.48-3.08,0-5.6.39-7.54,1.15l-1.02.4-4-.85,1.04-20.02h22.52Z"/>
            <path class="cls-6" d="M83.66,470.61h28.52v5.31h-28.52v-5.31Z"/>
            <path class="cls-6" d="M156.26,488.47h-24.25v-5.42l9.31-9.58c2.8-2.89,4.78-5.15,5.92-6.79,1.15-1.64,1.73-3.44,1.73-5.4s-.56-3.35-1.67-4.19c-1.1-.83-2.91-1.25-5.42-1.25-2.36,0-4.97.27-7.81.79l-1.42.23-.42-5.02c3.69-1.09,7.52-1.65,11.48-1.65,7.88,0,11.81,3.5,11.81,10.5,0,2.74-.6,5.11-1.81,7.13-1.2,2.02-3.33,4.45-6.42,7.29l-8.04,7.81h17v5.54Z"/>
            <path class="cls-6" d="M166.1,452.8c2.42-1.73,5.71-2.6,9.9-2.6s7.51.87,10,2.6c2.5,1.72,3.75,4.2,3.75,7.44,0,2.28-.35,4-1.06,5.17-.7,1.16-2.02,2.34-3.96,3.56,1.94,1.25,3.36,2.54,4.25,3.85.89,1.31,1.33,3.12,1.33,5.44,0,3.81-1.31,6.56-3.94,8.27-2.61,1.71-6.07,2.56-10.38,2.56-9.43,0-14.15-3.4-14.15-10.21,0-2.54.44-4.5,1.31-5.88s2.26-2.72,4.17-4.04c-1.79-1.18-3.05-2.41-3.77-3.69-.72-1.28-1.08-2.98-1.08-5.1,0-3.19,1.21-5.65,3.63-7.38ZM168.64,477.51c0,3.92,2.48,5.88,7.44,5.88s7.46-1.99,7.46-5.98c0-2.63-1.6-4.43-4.79-5.42h-5.48c-3.08.99-4.63,2.83-4.63,5.52ZM182.95,461.13c0-3.48-2.29-5.23-6.85-5.23s-6.83,1.74-6.83,5.23c0,2.29,1.33,4.1,4,5.44h5.48c2.8-1.33,4.21-3.15,4.21-5.44Z"/>
            <path class="cls-6" d="M192.82,455.05v-5.67h28.52v5.67h-11.02v33.42h-6.38v-33.42h-11.13Z"/>
            <path class="cls-6" d="M249.8,488.47v-16.88h-16.9v16.88h-6.33v-39.08h6.33v16.67h16.9v-16.67h6.38v39.08h-6.38Z"/>
            <path class="cls-6" d="M274.31,488.47l9.63-39.08h12.63l9.69,39.08h-6.4l-2.1-8.38h-15l-2.1,8.38h-6.33ZM288.85,454.69l-4.85,19.79h12.5l-4.79-19.79h-2.85Z"/>
            <path class="cls-6" d="M317.54,475.97c0,5.07,2.66,7.6,7.98,7.6s7.98-2.53,7.98-7.6v-26.58h6.4v26.48c0,4.6-1.21,7.95-3.63,10.06-2.42,2.11-6.02,3.17-10.79,3.17s-8.35-1.05-10.75-3.17c-2.39-2.11-3.58-5.46-3.58-10.06v-26.48h6.4v26.58Z"/>
            <path class="cls-6" d="M364.46,473.53v-5.6h11.13v19.85c-1.03.27-3.11.55-6.25.85-3.14.3-5.41.46-6.81.46-5.93,0-10.02-1.63-12.27-4.9-2.24-3.28-3.35-8.4-3.35-15.38s1.15-12.07,3.44-15.27c2.3-3.19,6.29-4.79,11.96-4.79,3.34,0,7.11.39,11.29,1.15l2,.4-.23,5.02c-4.6-.61-8.72-.92-12.38-.92s-6.16,1.03-7.5,3.08c-1.35,2.06-2.02,5.86-2.02,11.42s.63,9.39,1.9,11.5c1.28,2.11,3.85,3.17,7.73,3.17,2.78,0,4.85-.17,6.23-.52v-9.52h-4.85Z"/>
            <path class="cls-6" d="M389.57,475.97c0,5.07,2.66,7.6,7.98,7.6s7.98-2.53,7.98-7.6v-26.58h6.4v26.48c0,4.6-1.21,7.95-3.63,10.06-2.42,2.11-6.02,3.17-10.79,3.17s-8.35-1.05-10.75-3.17c-2.39-2.11-3.58-5.46-3.58-10.06v-26.48h6.4v26.58Z"/>
            <path class="cls-6" d="M432.05,454.3c-4.83,0-7.25,1.7-7.25,5.08,0,1.75.57,2.99,1.71,3.73,1.14.74,3.65,1.65,7.54,2.73,3.9,1.08,6.65,2.39,8.25,3.9,1.59,1.5,2.4,3.86,2.4,7.08,0,4.11-1.17,7.19-3.5,9.23-2.33,2.03-5.52,3.04-9.56,3.04-3.22,0-6.79-.39-10.71-1.15l-2.06-.4.63-5.06c5.14.68,9.05,1.02,11.75,1.02,4.72,0,7.08-2.09,7.08-6.27,0-1.64-.54-2.84-1.6-3.63-1.07-.78-3.47-1.63-7.19-2.56-3.72-.94-6.5-2.23-8.33-3.85-1.82-1.64-2.73-4.22-2.73-7.75s1.15-6.21,3.44-8.02c2.3-1.8,5.49-2.71,9.56-2.71,2.93,0,6.4.34,10.4,1.02l1.98.33-.5,5.15c-5.33-.61-9.1-.92-11.29-.92Z"/>
            <path class="cls-6" d="M447.79,455.05v-5.67h28.52v5.67h-11.02v33.42h-6.38v-33.42h-11.13Z"/>
            <path class="cls-6" d="M31.5,562.39v-16.88H14.6v16.88h-6.33v-39.08h6.33v16.67h16.9v-16.67h6.38v39.08h-6.38Z"/>
            <path class="cls-6" d="M61.15,550.25h-8v12.15h-6.33v-39.08h14.33c8.84,0,13.27,4.38,13.27,13.13,0,4.49-1.11,7.91-3.33,10.27-2.22,2.36-5.54,3.54-9.94,3.54ZM53.15,544.77h7.94c4.55,0,6.83-2.78,6.83-8.33,0-2.65-.55-4.59-1.65-5.81-1.1-1.22-2.83-1.83-5.19-1.83h-7.94v15.98Z"/>
            <path class="cls-6" d="M80.52,562.39v-39.08h6.33v39.08h-6.33Z"/>
            <path class="cls-6" d="M122.74,550.25h-8v12.15h-6.33v-39.08h14.33c8.84,0,13.27,4.38,13.27,13.13,0,4.49-1.11,7.91-3.33,10.27-2.22,2.36-5.54,3.54-9.94,3.54ZM114.74,544.77h7.94c4.55,0,6.83-2.78,6.83-8.33,0-2.65-.55-4.59-1.65-5.81-1.1-1.22-2.83-1.83-5.19-1.83h-7.94v15.98Z"/>
            <path class="cls-6" d="M148.9,554.12c1.29,2.25,3.76,3.38,7.42,3.38s6.11-1.1,7.38-3.31c1.28-2.21,1.92-5.91,1.92-11.1s-.66-8.96-1.98-11.31c-1.31-2.36-3.74-3.54-7.31-3.54s-6.02,1.18-7.35,3.54c-1.33,2.35-2,6.1-2,11.25s.65,8.85,1.94,11.1ZM168.65,558.23c-2.33,3.2-6.45,4.79-12.33,4.79s-10.02-1.6-12.38-4.81c-2.36-3.22-3.54-8.27-3.54-15.15s1.19-12.01,3.56-15.35c2.38-3.34,6.49-5.02,12.35-5.02s9.96,1.67,12.31,5c2.36,3.32,3.54,8.45,3.54,15.38s-1.18,11.97-3.52,15.17Z"/>
            <path class="cls-6" d="M175.03,528.98v-5.67h28.52v5.67h-11.02v33.42h-6.38v-33.42h-11.13Z"/>
            <path class="cls-6" d="M220.25,528.23c-4.83,0-7.25,1.7-7.25,5.08,0,1.75.57,2.99,1.71,3.73,1.14.74,3.65,1.65,7.54,2.73,3.9,1.08,6.65,2.39,8.25,3.9,1.59,1.5,2.4,3.86,2.4,7.08,0,4.11-1.17,7.19-3.5,9.23-2.33,2.03-5.52,3.04-9.56,3.04-3.22,0-6.79-.39-10.71-1.15l-2.06-.4.63-5.06c5.14.68,9.05,1.02,11.75,1.02,4.72,0,7.08-2.09,7.08-6.27,0-1.64-.54-2.84-1.6-3.63-1.07-.78-3.47-1.63-7.19-2.56-3.72-.94-6.5-2.23-8.33-3.85-1.82-1.64-2.73-4.22-2.73-7.75s1.15-6.21,3.44-8.02c2.3-1.8,5.49-2.71,9.56-2.71,2.93,0,6.4.34,10.4,1.02l1.98.33-.5,5.15c-5.33-.61-9.1-.92-11.29-.92Z"/>
            <path class="cls-6" d="M253.26,562.39h-13.52v-39.08h13.52c6.01,0,10.11,1.53,12.31,4.58,2.21,3.04,3.31,7.81,3.31,14.31,0,3.31-.22,6.11-.67,8.42-.43,2.29-1.2,4.37-2.29,6.23-2.17,3.7-6.39,5.54-12.67,5.54ZM262.34,542.21c0-4.72-.59-8.13-1.77-10.21-1.18-2.09-3.62-3.15-7.31-3.15h-7.19v27.96h7.19c3.76,0,6.28-1.39,7.54-4.17.59-1.42,1-2.92,1.21-4.5.22-1.59.33-3.57.33-5.94Z"/>
            <path class="cls-6" d="M272.26,562.39l9.63-39.08h12.63l9.69,39.08h-6.4l-2.1-8.38h-15l-2.1,8.38h-6.33ZM286.8,528.62l-4.85,19.79h12.5l-4.79-19.79h-2.85Z"/>
            <path class="cls-6" d="M309.77,562.39v-39.08h11.02l8.73,30.52,8.73-30.52h11.06v39.08h-6.4v-32.06h-.85l-9.25,30.46h-6.6l-9.25-30.46h-.85v32.06h-6.33Z"/>
          </g>
        </g>
      </g>
      <path class="cls-6" d="M5.72,357.04c0-6.47,1.35-12.07,4.06-16.79,2.72-4.74,6.52-8.4,11.4-10.95,4.83-2.53,10.41-3.8,16.73-3.8s11.86,1.05,16.54,3.14c4.77,2.13,8.47,5.22,11.12,9.28,2.65,4.06,3.97,8.88,3.97,14.45,0,3.88-.85,7.2-2.54,9.97-1.65,2.7-3.89,5.03-6.7,7.01-2.71,1.9-5.74,3.58-9.09,5.03-3.26,1.41-6.64,2.79-10.15,4.14-3.45,1.32-6.77,2.74-9.96,4.24-3.12,1.47-5.93,3.19-8.44,5.16-2.42,1.91-4.34,4.18-5.74,6.82-1.39,2.61-2.08,5.79-2.08,9.54h-1.75v-1.75h56v11.44H2.92v-9.69c0-5.1.81-9.52,2.43-13.26,1.62-3.73,3.83-6.92,6.61-9.54,2.72-2.56,5.77-4.77,9.14-6.61,3.31-1.81,6.74-3.4,10.3-4.77l10.09-3.83c3.17-1.19,6.04-2.45,8.58-3.79,2.41-1.26,4.29-2.73,5.67-4.41,1.26-1.55,1.9-3.45,1.9-5.71,0-5.22-1.6-9.07-4.79-11.55-3.33-2.59-8.31-3.88-14.94-3.88s-11.52,1.68-15.04,5.03c-3.5,3.33-5.24,8.35-5.24,15.07v1.75H5.72v-1.75ZM9.22,357.04h-1.75v-1.75h8.41v1.75h-1.76c0-7.72,2.11-13.59,6.33-17.61,4.2-3.99,10.02-5.99,17.45-5.99s13.13,1.54,17.09,4.61c4.09,3.18,6.14,7.96,6.14,14.32,0,3.09-.9,5.73-2.68,7.92-1.68,2.05-3.93,3.82-6.76,5.3-2.68,1.41-5.67,2.72-8.97,3.96l-10.07,3.82c-3.42,1.31-6.7,2.83-9.88,4.57-3.1,1.7-5.91,3.73-8.42,6.09-2.44,2.29-4.38,5.09-5.8,8.39-1.43,3.29-2.15,7.24-2.15,11.86v7.94h-1.75v-1.75h62.66v1.75h-1.76v-7.94h1.76v1.75H11.32v-1.75c0-4.34.83-8.07,2.49-11.19,1.64-3.08,3.86-5.72,6.68-7.93,2.71-2.14,5.76-3.99,9.11-5.58,3.28-1.54,6.68-2.99,10.2-4.34,3.46-1.33,6.8-2.69,10.02-4.08,3.13-1.35,5.95-2.91,8.47-4.68,2.42-1.69,4.32-3.69,5.72-5.97,1.35-2.21,2.03-4.92,2.03-8.14,0-4.89-1.14-9.06-3.4-12.54-2.27-3.48-5.48-6.15-9.61-7.99-4.22-1.89-9.26-2.84-15.11-2.84s-10.79,1.14-15.1,3.4c-4.28,2.24-7.6,5.44-9.98,9.59-2.4,4.18-3.6,9.19-3.6,15.05Z"/>
      <path class="cls-6" d="M111.2,413.98c-6.64,0-12.57-1.73-17.78-5.19-5.2-3.45-9.28-8.46-12.25-15.02-2.94-6.49-4.41-14.34-4.41-23.55s1.47-17.15,4.41-23.6c2.97-6.53,7.05-11.52,12.25-14.97,5.21-3.46,11.14-5.2,17.78-5.2s12.46,1.73,17.64,5.2c5.16,3.45,9.23,8.44,12.2,14.97,2.94,6.46,4.41,14.32,4.41,23.6s-1.47,17.06-4.41,23.55c-2.97,6.56-7.04,11.56-12.2,15.02-5.18,3.46-11.06,5.2-17.64,5.2ZM111.2,410.48c5.87,0,11.1-1.54,15.69-4.61,4.61-3.08,8.26-7.6,10.96-13.55,2.72-6.03,4.09-13.4,4.09-22.1s-1.36-16.16-4.09-22.15c-2.7-5.92-6.35-10.43-10.96-13.51-4.59-3.07-9.82-4.6-15.69-4.6s-11.21,1.54-15.84,4.61c-4.64,3.08-8.31,7.58-11,13.51-2.73,5.99-4.09,13.38-4.09,22.15s1.36,16.08,4.09,22.1c2.69,5.95,6.36,10.47,11,13.55,4.63,3.07,9.9,4.61,15.84,4.61ZM88.68,370.21c0,10.73,1.77,18.78,5.31,24.15,3.39,5.14,9.13,7.71,17.21,7.71s13.71-2.57,17.07-7.7c3.52-5.37,5.27-13.43,5.27-24.16s-1.76-18.79-5.27-24.16c-3.36-5.14-9.05-7.7-17.07-7.7s-13.82,2.57-17.21,7.71c-3.54,5.38-5.31,13.43-5.31,24.16ZM85.18,370.21c0-11.43,1.96-20.13,5.89-26.08,4.08-6.19,10.79-9.28,20.14-9.28s15.95,3.09,20,9.29c3.89,5.96,5.84,14.65,5.84,26.08s-1.95,20.12-5.84,26.07c-4.05,6.19-10.72,9.29-20,9.29s-16.06-3.09-20.14-9.29c-3.93-5.96-5.89-14.65-5.89-26.08Z"/>
      <path class="cls-6" d="M155.48,357.04c0-6.47,1.35-12.07,4.06-16.79,2.72-4.74,6.52-8.4,11.4-10.95,4.83-2.53,10.41-3.8,16.73-3.8s11.86,1.05,16.54,3.14c4.77,2.13,8.47,5.22,11.12,9.28,2.65,4.06,3.97,8.88,3.97,14.45,0,3.88-.85,7.2-2.54,9.97-1.65,2.7-3.89,5.03-6.7,7.01-2.71,1.9-5.74,3.58-9.09,5.03-3.26,1.41-6.64,2.79-10.15,4.14-3.45,1.32-6.77,2.74-9.96,4.24-3.12,1.47-5.93,3.19-8.44,5.16-2.42,1.91-4.34,4.18-5.74,6.82-1.39,2.61-2.08,5.79-2.08,9.54h-1.75v-1.75h56v11.44h-66.16v-9.69c0-5.1.81-9.52,2.43-13.26,1.62-3.73,3.83-6.92,6.61-9.54,2.72-2.56,5.77-4.77,9.14-6.61,3.31-1.81,6.74-3.4,10.3-4.77l10.09-3.83c3.17-1.19,6.04-2.45,8.58-3.79,2.41-1.26,4.29-2.73,5.67-4.41,1.26-1.55,1.9-3.45,1.9-5.71,0-5.22-1.6-9.07-4.79-11.55-3.33-2.59-8.31-3.88-14.94-3.88s-11.52,1.68-15.04,5.03c-3.5,3.33-5.24,8.35-5.24,15.07v1.75h-11.91v-1.75ZM158.98,357.04h-1.75v-1.75h8.41v1.75h-1.76c0-7.72,2.11-13.59,6.33-17.61,4.2-3.99,10.02-5.99,17.45-5.99s13.13,1.54,17.09,4.61c4.09,3.18,6.14,7.96,6.14,14.32,0,3.09-.9,5.73-2.68,7.92-1.68,2.05-3.93,3.82-6.76,5.3-2.68,1.41-5.67,2.72-8.97,3.96l-10.07,3.82c-3.42,1.31-6.7,2.83-9.88,4.57-3.1,1.7-5.91,3.73-8.42,6.09-2.44,2.29-4.38,5.09-5.8,8.39-1.43,3.29-2.15,7.24-2.15,11.86v7.94h-1.75v-1.75h62.66v1.75h-1.76v-7.94h1.76v1.75h-56v-1.75c0-4.34.83-8.07,2.49-11.19,1.64-3.08,3.86-5.72,6.68-7.93,2.71-2.14,5.76-3.99,9.11-5.58,3.28-1.54,6.68-2.99,10.2-4.34,3.46-1.33,6.8-2.69,10.02-4.08,3.13-1.35,5.95-2.91,8.47-4.68,2.42-1.69,4.32-3.69,5.72-5.97,1.35-2.21,2.03-4.92,2.03-8.14,0-4.89-1.14-9.06-3.4-12.54-2.27-3.48-5.48-6.15-9.61-7.99-4.22-1.89-9.26-2.84-15.11-2.84s-10.79,1.14-15.1,3.4c-4.28,2.24-7.6,5.44-9.98,9.59-2.4,4.18-3.6,9.19-3.6,15.05Z"/>
      <path class="cls-6" d="M225.13,368.89c.06-10.02,1.06-18.02,2.98-24.01,1.98-6.18,4.93-10.71,8.84-13.61,3.89-2.88,8.6-4.51,14.14-4.87,5.34-.35,11.38.08,18.12,1.29l7.98,1.36v11.49l-8.58-1.47c-5.8-1.04-10.67-1.48-14.63-1.33-3.74.15-6.76.98-9.04,2.51-2.24,1.51-3.97,3.84-5.17,7.02-1.28,3.35-2.1,7.74-2.46,13.17l-1.74-.12v-1.75h15.78c6.26,0,11.42.79,15.48,2.36,4.14,1.6,7.39,3.79,9.76,6.57,2.35,2.75,3.99,5.88,4.94,9.36.91,3.39,1.36,6.9,1.36,10.54,0,4.9-.85,9.41-2.56,13.51-1.76,4.24-4.7,7.64-8.81,10.2-4.08,2.54-9.56,3.81-16.43,3.81s-12.57-1.52-17.04-4.55c-4.51-3.06-7.82-8.03-9.93-14.9-2.05-6.64-3.04-15.5-2.97-26.57ZM228.63,368.91c-.06,10.71.88,19.22,2.82,25.53,1.88,6.08,4.72,10.42,8.56,13.03,3.87,2.63,8.9,3.94,15.07,3.94s11.06-1.09,14.58-3.28c3.48-2.17,5.95-5.03,7.43-8.57,1.53-3.67,2.29-7.73,2.29-12.17,0-3.33-.42-6.54-1.24-9.63-.81-2.98-2.21-5.65-4.22-8.01-1.99-2.33-4.77-4.18-8.36-5.57-3.66-1.42-8.39-2.12-14.21-2.12h-17.65l.13-1.87c.39-5.78,1.28-10.51,2.68-14.18,1.47-3.86,3.64-6.76,6.5-8.68,2.83-1.9,6.44-2.93,10.85-3.09,4.2-.16,9.32.3,15.35,1.38l6.54,1.12-.29,1.72h-1.76v-7.93h1.76l-.3,1.72-6.55-1.13c-6.46-1.16-12.21-1.57-17.27-1.23-4.86.32-8.95,1.71-12.29,4.19-3.31,2.45-5.84,6.41-7.59,11.88-1.81,5.65-2.75,13.3-2.81,22.96ZM237.03,368.91c-.06,7.55.33,13.65,1.19,18.3.83,4.53,2.03,7.98,3.61,10.36,1.51,2.27,3.31,3.81,5.42,4.6,2.26.86,4.87,1.29,7.83,1.29,5.78,0,9.87-1.28,12.26-3.83,2.43-2.59,3.64-6.67,3.64-12.25,0-2.93-.22-5.53-.67-7.78-.41-2.06-1.22-3.8-2.45-5.21-1.21-1.4-3.07-2.46-5.57-3.2-2.67-.8-6.32-1.19-10.94-1.19h-16.06v-1.75h1.75v.67ZM233.53,368.9v-2.41h17.81c4.96,0,8.94.44,11.94,1.33,3.16.94,5.57,2.36,7.22,4.27,1.64,1.89,2.72,4.16,3.24,6.83.49,2.47.73,5.3.73,8.46,0,6.5-1.53,11.38-4.58,14.65-3.08,3.29-8.02,4.94-14.82,4.94-3.39,0-6.41-.51-9.07-1.52-2.81-1.07-5.18-3.05-7.09-5.95-1.84-2.78-3.22-6.67-4.14-11.67-.89-4.87-1.3-11.19-1.24-18.96v.02Z"/>
    </g>
  </g>
</svg>