<?xml version="1.0" encoding="utf-8"?>
<!-- Generator: Adobe Illustrator 29.7.1, SVG Export Plug-In . SVG Version: 9.03 Build 0)  -->
<svg version="1.0" id="Ebene_1" xmlns="http://www.w3.org/2000/svg" xmlns:xlink="http://www.w3.org/1999/xlink" x="0px" y="0px"
	 viewBox="0 0 559 525.89" style="enable-background:new 0 0 559 525.89;" xml:space="preserve">
<style type="text/css">
	.st0{clip-path:url(#SVGID_00000089541330421833436900000014402702800347003524_);}
	.st1{clip-path:url(#SVGID_00000119816748141411535200000011499754048790734260_);}
	.st2{clip-path:url(#SVGID_00000046328942989616560120000015247049563259284135_);}
	.st3{clip-path:url(#SVGID_00000156581242318764463170000016616087188312131751_);}
	.st4{fill:#FFFFFF;}
</style>
<g>
	<defs>
		<rect id="SVGID_1_" y="0.37" width="558" height="530.29"/>
	</defs>
	<clipPath id="SVGID_00000169521038511951283290000008590847819507581316_">
		<use xlink:href="#SVGID_1_"  style="overflow:visible;"/>
	</clipPath>
	<g style="clip-path:url(#SVGID_00000169521038511951283290000008590847819507581316_);">
		<g transform="matrix(1, 0, 0, 1, 0, -0.000000000000053457)">
			<g>
				<defs>
					<rect id="SVGID_00000068661688606654059650000012185407568211197584_" y="0" width="558.67" height="530.67"/>
				</defs>
				<clipPath id="SVGID_00000161610368252656949270000017915567825799921574_">
					<use xlink:href="#SVGID_00000068661688606654059650000012185407568211197584_"  style="overflow:visible;"/>
				</clipPath>
				<g style="clip-path:url(#SVGID_00000161610368252656949270000017915567825799921574_);">
					<g>
						<defs>
							<rect id="SVGID_00000097491484588739413230000008322157589402893702_" x="2.67" y="0.37" width="555.33" height="315.62"/>
						</defs>
						<clipPath id="SVGID_00000023239511470131574020000012770716007090057141_">
							<use xlink:href="#SVGID_00000097491484588739413230000008322157589402893702_"  style="overflow:visible;"/>
						</clipPath>
						<g style="clip-path:url(#SVGID_00000023239511470131574020000012770716007090057141_);">
							<g transform="matrix(1, 0, 0, 1, 2, -0.000000000000053457)">
								<g>
									<defs>
										<rect id="SVGID_00000093862451637803420820000004803454885526134972_" x="0.67" y="0" width="556" height="316"/>
									</defs>
									<clipPath id="SVGID_00000107557854404318610810000001440697351648877445_">
										<use xlink:href="#SVGID_00000093862451637803420820000004803454885526134972_"  style="overflow:visible;"/>
									</clipPath>
									<g style="clip-path:url(#SVGID_00000107557854404318610810000001440697351648877445_);">
										<g>
											<g transform="translate(0.827712, 66.907355)">
												<g>
													<path class="st4" d="M65.84-61.74H5.61V22.3h60.23V7.82H19.71v-19.79h33.15v-14.48H19.53l0.19-20.81h46.13V-61.74z"/>
												</g>
											</g>
										</g>
										<g>
											<g transform="translate(50.063252, 66.907355)">
												<g>
													<path class="st4" d="M88.31-43.05V22.3h-14L77.1,3.07h-2.79c-1.06,4.67-2.81,8.41-5.27,11.21
														c-2.46,2.79-5.42,4.83-8.88,6.1c-3.46,1.28-7.21,1.92-11.25,1.92c-3.06,0-6.11-0.46-9.17-1.4
														c-3.04-0.93-5.84-2.55-8.4-4.85c-2.54-2.3-4.6-5.54-6.17-9.71c-1.56-4.18-2.33-9.47-2.33-15.88v-33.52h14.02v33.52
														c0,5.42,0.71,9.62,2.15,12.6c1.43,2.99,3.4,5.07,5.92,6.25c2.53,1.18,5.38,1.77,8.56,1.77c2.54,0,5.04-0.32,7.5-0.98
														c2.46-0.65,4.68-1.74,6.67-3.27c2-1.53,3.59-3.63,4.77-6.29c1.19-2.68,1.79-6.04,1.79-10.08l0.08-33.52H88.31z"/>
												</g>
											</g>
										</g>
										<g>
											<g transform="translate(103.851163, 66.907355)">
												<g>
													<path class="st4" d="M39.95,22.3v-65.35h14l-2.79,19.23h2.79c1.07-4.67,2.81-8.4,5.23-11.21
														c2.43-2.8,5.31-4.84,8.65-6.1c3.33-1.28,6.83-1.92,10.5-1.92v11.19c-4.6,0-8.74,0.6-12.42,1.79
														c-3.67,1.18-6.56,3.27-8.69,6.25c-2.11,2.99-3.17,7.19-3.17,12.6l-0.1,33.52H39.95z"/>
												</g>
											</g>
										</g>
										<g>
											<g transform="translate(136.698205, 66.907355)">
												<g>
													<path class="st4" d="M85.73,23.24c-4.79,0-9.29-0.74-13.5-2.23c-4.2-1.5-7.9-3.69-11.1-6.58
														c-3.21-2.9-5.72-6.44-7.52-10.6C51.8-0.35,50.9-5.12,50.9-10.47c0-5.36,0.9-10.11,2.71-14.25
														c1.8-4.14,4.31-7.64,7.52-10.5c3.21-2.86,6.91-5.03,11.1-6.52c4.21-1.5,8.71-2.25,13.5-2.25s9.3,0.75,13.54,2.25
														c4.23,1.49,7.95,3.66,11.15,6.52c3.21,2.86,5.71,6.36,7.52,10.5c1.8,4.14,2.71,8.89,2.71,14.25
														c0,5.35-0.91,10.11-2.71,14.29c-1.81,4.17-4.31,7.7-7.52,10.6c-3.2,2.89-6.91,5.08-11.15,6.58
														C95.03,22.5,90.52,23.24,85.73,23.24z M64.9-10.47c0,4.17,0.76,7.97,2.29,11.4c1.53,3.42,3.83,6.12,6.92,8.12
														c3.08,1.99,6.96,2.98,11.62,2.98s8.55-0.99,11.67-2.98c3.11-2,5.43-4.71,6.96-8.12c1.53-3.43,2.29-7.23,2.29-11.4
														s-0.77-7.93-2.29-11.29c-1.53-3.38-3.85-6.05-6.96-8.04c-3.11-1.98-7-2.98-11.67-2.98s-8.54,0.99-11.62,2.98
														c-3.08,1.99-5.39,4.67-6.92,8.04C65.66-18.4,64.9-14.64,64.9-10.47z"/>
												</g>
											</g>
										</g>
										<g>
											<g transform="translate(193.077467, 66.907355)">
												<g>
													<path class="st4" d="M83.69,50.32h-14v-93.38h14L80.9-25.51h2.79c1.75-6.84,4.72-11.79,8.92-14.83
														c4.21-3.05,9.3-4.58,15.27-4.58c4.61,0,8.91,0.88,12.9,2.62c3.98,1.74,7.51,4.15,10.58,7.23
														c3.08,3.08,5.48,6.67,7.19,10.75c1.72,4.07,2.58,8.44,2.58,13.1c0,4.61-0.86,8.94-2.58,12.98
														c-1.71,4.04-4.1,7.6-7.19,10.69c-3.07,3.08-6.6,5.5-10.58,7.25c-3.99,1.74-8.29,2.6-12.9,2.6
														c-5.97,0-11.06-1.49-15.27-4.48c-4.2-2.98-7.17-7.9-8.92-14.75L80.9,3.26l2.79,19.04V50.32z M83.69-11.22
														c0,7.35,2.04,12.89,6.12,16.62c4.08,3.74,9.79,5.6,17.12,5.6c4.55,0,8.3-1.03,11.25-3.08
														c2.96-2.05,5.17-4.78,6.62-8.17c1.47-3.4,2.21-7.09,2.21-11.08c0-4.04-0.74-7.77-2.21-11.19
														c-1.46-3.43-3.67-6.19-6.62-8.27c-2.95-2.08-6.7-3.12-11.25-3.12c-7.33,0-13.04,2.02-17.12,6.06
														C85.73-23.8,83.69-18.26,83.69-11.22z"/>
												</g>
											</g>
										</g>
										<g>
											<g transform="translate(250.717365, 66.907355)">
												<g>
													<path class="st4" d="M88.91-10.47c0-6.79,1.49-12.69,4.48-17.69c2.98-5.01,7.07-8.9,12.27-11.67
														c5.21-2.78,11.14-4.17,17.79-4.17c4.61,0,9.01,0.68,13.21,2.02c4.21,1.33,7.96,3.48,11.25,6.44
														c3.3,2.95,5.91,6.79,7.81,11.52c1.9,4.74,2.85,10.47,2.85,17.19h-55.56c0.68,6.16,2.92,10.87,6.71,14.15
														c3.8,3.27,8.38,4.9,13.73,4.9c3.3,0,6.42-0.61,9.33-1.85c2.93-1.25,5.42-2.93,7.48-5.04c2.05-2.12,3.42-4.49,4.1-7.1
														h13.92c-0.93,4.67-3,8.91-6.21,12.71c-3.21,3.79-7.26,6.79-12.15,9c-4.88,2.21-10.37,3.31-16.48,3.31
														c-4.97,0-9.56-0.87-13.77-2.6c-4.2-1.75-7.85-4.17-10.96-7.25c-3.11-3.08-5.53-6.66-7.25-10.73
														C89.76-1.43,88.91-5.8,88.91-10.47z M103.76-18.03h39.69c-1.12-3.8-2.77-6.78-4.92-8.92
														c-2.14-2.15-4.54-3.69-7.19-4.62c-2.64-0.93-5.27-1.4-7.9-1.4c-4.72,0-8.86,1.29-12.42,3.87
														C107.49-26.51,105.06-22.82,103.76-18.03z"/>
												</g>
											</g>
										</g>
										<g>
											<g transform="translate(307.026585, 66.907355)">
												<g>
													<path class="st4" d="M107.68,3.64c0-7.04,2.81-12.34,8.44-15.92c5.64-3.58,14.06-6.15,25.27-7.71l12.79-1.79
														c0-1.61-0.41-3.26-1.21-4.94c-0.81-1.68-2.14-3.09-3.98-4.25c-1.83-1.15-4.31-1.73-7.42-1.73
														c-2.74,0-5.32,0.39-7.75,1.17c-2.43,0.78-4.4,2.1-5.9,3.98c-1.49,1.86-2.23,4.47-2.23,7.83h-14
														c0-4.29,0.82-7.98,2.46-11.06c1.65-3.08,3.88-5.6,6.69-7.56c2.8-1.96,5.99-3.39,9.56-4.29
														c3.58-0.9,7.34-1.35,11.27-1.35c5.65,0,10.22,0.83,13.71,2.48c3.48,1.64,6.15,3.79,7.98,6.44
														c1.84,2.64,3.11,5.47,3.79,8.5c0.68,3.02,1.02,5.89,1.02,8.62V3.72c0,2.81,0.31,4.74,0.94,5.79
														c0.62,1.06,1.88,1.58,3.75,1.58h0.92V22.3h-0.92c-3.93,0-6.99-0.54-9.17-1.62c-2.18-1.09-3.7-2.98-4.54-5.65
														c-0.83-2.68-1.25-6.45-1.25-11.31h-2.79c-0.93,3.79-2.68,7.17-5.23,10.13c-2.56,2.96-5.62,5.28-9.21,6.96
														c-3.57,1.68-7.35,2.52-11.33,2.52c-3.68,0-7.19-0.67-10.52-2c-3.32-1.33-6.01-3.44-8.06-6.33
														C108.7,12.09,107.68,8.3,107.68,3.64z M121.68,3.64c0,1.56,0.39,3.12,1.17,4.71c0.78,1.58,2.07,2.93,3.88,4.02
														c1.8,1.08,4.23,1.62,7.29,1.62c1.62,0,3.36-0.31,5.23-0.94c1.86-0.62,3.72-1.79,5.58-3.5
														c1.88-1.71,3.64-4.18,5.29-7.42c1.65-3.23,3.04-7.44,4.17-12.6l-12.9,1.67c-5.54,0.7-9.73,1.73-12.56,3.1
														c-2.83,1.36-4.74,2.87-5.71,4.52C122.15,0.48,121.68,2.08,121.68,3.64z"/>
												</g>
											</g>
										</g>
										<g>
											<g transform="translate(360.674411, 66.907355)">
												<g>
													<path class="st4" d="M125.56,22.3v-65.35h14l-2.79,19.23h2.79c1.07-4.67,2.83-8.4,5.29-11.21
														c2.46-2.8,5.43-4.84,8.92-6.1c3.48-1.28,7.22-1.92,11.21-1.92c3.04,0,6.08,0.47,9.12,1.4
														c3.05,0.93,5.86,2.55,8.42,4.85c2.55,2.31,4.61,5.53,6.17,9.67c1.55,4.14,2.33,9.45,2.33,15.92V22.3h-14v-33.52
														c0-5.42-0.74-9.61-2.21-12.6c-1.46-2.98-3.44-5.07-5.94-6.25c-2.49-1.19-5.31-1.79-8.48-1.79c-2.56,0-5.06,0.33-7.52,1
														c-2.46,0.66-4.69,1.74-6.69,3.27c-1.99,1.52-3.57,3.61-4.75,6.29c-1.18,2.68-1.77,6.04-1.77,10.08l-0.1,33.52H125.56z"
														/>
												</g>
											</g>
										</g>
										<g>
											<g transform="translate(0.827712, 139.862091)">
												<g>
													<path class="st4" d="M19.61,46.62v-84.04h-14v84.04H19.61z"/>
												</g>
											</g>
										</g>
										<g>
											<g transform="translate(15.395282, 139.862091)">
												<g>
													<path class="st4" d="M10.47,46.62v-65.35h13.92L21.57,0.5h2.81c1.61-7.04,4.34-12.01,8.21-14.9
														c3.86-2.89,8.34-4.33,13.46-4.33c2.18,0,4.4,0.3,6.67,0.9c2.28,0.58,4.44,1.59,6.5,3.02c2.05,1.43,3.86,3.39,5.42,5.88
														c1.55,2.49,2.67,5.64,3.35,9.44h2.15c1.62-7.04,4.36-12.01,8.21-14.9c3.86-2.89,8.34-4.33,13.46-4.33
														c2.8,0,5.61,0.47,8.44,1.4c2.83,0.93,5.45,2.55,7.85,4.85c2.4,2.31,4.32,5.53,5.75,9.67
														c1.43,4.14,2.15,9.45,2.15,15.92v33.52h-14.94V13.1c0-5.42-0.56-9.61-1.69-12.6c-1.12-2.98-2.72-5.07-4.77-6.25
														c-2.06-1.19-4.52-1.79-7.38-1.79c-2.74,0-5.41,0.6-8.02,1.79c-2.61,1.18-4.76,3.27-6.44,6.25
														c-1.68,2.99-2.52,7.19-2.52,12.6v33.52H55.28V13.1c0-5.42-0.56-9.61-1.69-12.6c-1.11-2.98-2.7-5.07-4.75-6.25
														c-2.06-1.19-4.52-1.79-7.38-1.79c-2.74,0-5.42,0.6-8.04,1.79c-2.61,1.18-4.76,3.27-6.44,6.25
														c-1.68,2.99-2.52,7.19-2.52,12.6l-0.08,33.52H10.47z"/>
												</g>
											</g>
										</g>
										<g>
											<g transform="translate(98.598457, 139.862091)">
												<g>
													<path class="st4" d="M52.2,74.64h-14v-93.38h14L49.41-1.19h2.79c1.75-6.84,4.72-11.79,8.92-14.83
														c4.21-3.05,9.3-4.58,15.27-4.58c4.61,0,8.91,0.88,12.9,2.62c3.98,1.74,7.51,4.15,10.58,7.23
														c3.08,3.08,5.48,6.67,7.19,10.75c1.72,4.07,2.58,8.44,2.58,13.1c0,4.61-0.86,8.94-2.58,12.98
														c-1.71,4.04-4.1,7.6-7.19,10.69c-3.07,3.08-6.6,5.5-10.58,7.25c-3.99,1.74-8.29,2.6-12.9,2.6
														c-5.97,0-11.06-1.49-15.27-4.48c-4.2-2.98-7.17-7.9-8.92-14.75l-2.79,0.19l2.79,19.04V74.64z M52.2,13.1
														c0,7.35,2.04,12.89,6.12,16.62c4.08,3.74,9.79,5.6,17.13,5.6c4.55,0,8.3-1.03,11.25-3.08
														c2.96-2.05,5.17-4.78,6.62-8.17c1.47-3.4,2.21-7.09,2.21-11.08c0-4.04-0.74-7.77-2.21-11.19
														c-1.46-3.43-3.67-6.19-6.62-8.27C83.75-8.55,80-9.59,75.45-9.59c-7.33,0-13.04,2.02-17.13,6.06S52.2,6.06,52.2,13.1z"
														/>
												</g>
											</g>
										</g>
										<g>
											<g transform="translate(156.238354, 139.862091)">
												<g>
													<path class="st4" d="M57.41,27.95c0-7.04,2.81-12.34,8.44-15.92c5.64-3.58,14.06-6.15,25.27-7.71l12.79-1.79
														c0-1.61-0.41-3.26-1.21-4.94c-0.81-1.68-2.14-3.09-3.98-4.25c-1.83-1.15-4.31-1.73-7.42-1.73
														c-2.74,0-5.32,0.39-7.75,1.17c-2.43,0.78-4.4,2.1-5.9,3.98c-1.49,1.86-2.23,4.47-2.23,7.83h-14
														c0-4.29,0.82-7.98,2.46-11.06c1.65-3.08,3.88-5.6,6.69-7.56c2.8-1.96,5.99-3.39,9.56-4.29
														c3.58-0.9,7.34-1.35,11.27-1.35c5.65,0,10.22,0.83,13.71,2.48c3.48,1.64,6.15,3.79,7.98,6.44
														c1.84,2.64,3.11,5.47,3.79,8.5c0.68,3.02,1.02,5.89,1.02,8.62v21.67c0,2.81,0.31,4.74,0.94,5.79
														c0.62,1.06,1.88,1.58,3.75,1.58h0.92v11.21h-0.92c-3.93,0-6.99-0.54-9.17-1.62c-2.18-1.09-3.7-2.98-4.54-5.65
														c-0.83-2.68-1.25-6.45-1.25-11.31h-2.79c-0.93,3.79-2.68,7.17-5.23,10.12c-2.56,2.96-5.62,5.28-9.21,6.96
														c-3.57,1.68-7.35,2.52-11.33,2.52c-3.68,0-7.19-0.67-10.52-2c-3.32-1.33-6.01-3.44-8.06-6.33
														C58.44,36.41,57.41,32.62,57.41,27.95z M71.41,27.95c0,1.56,0.39,3.12,1.17,4.71c0.78,1.58,2.07,2.93,3.88,4.02
														c1.8,1.08,4.23,1.62,7.29,1.62c1.62,0,3.36-0.31,5.23-0.94c1.86-0.62,3.72-1.79,5.58-3.5
														c1.88-1.71,3.64-4.18,5.29-7.42c1.65-3.23,3.04-7.44,4.17-12.6l-12.9,1.67c-5.54,0.7-9.73,1.73-12.56,3.1
														c-2.83,1.36-4.74,2.87-5.71,4.52C71.89,24.8,71.41,26.4,71.41,27.95z"/>
												</g>
											</g>
										</g>
										<g>
											<g transform="translate(209.88618, 139.862091)">
												<g>
													<path class="st4" d="M75.3,14.04c0-4.61,0.8-8.95,2.42-13.02c1.62-4.08,3.9-7.68,6.81-10.79
														c2.93-3.11,6.35-5.53,10.27-7.27c3.93-1.75,8.17-2.62,12.71-2.62c6.72,0,12.4,1.28,17.04,3.83
														c4.64,2.54,8.21,5.91,10.73,10.08c2.53,4.17,3.95,8.71,4.27,13.62h-14.21c-0.81-5.42-2.81-9.15-6.02-11.21
														c-3.2-2.05-7.14-3.08-11.81-3.08c-3.92,0-7.23,0.97-9.94,2.9c-2.71,1.93-4.77,4.45-6.17,7.56
														c-1.41,3.11-2.1,6.45-2.1,10c0,3.61,0.7,6.96,2.1,10.04c1.4,3.07,3.46,5.54,6.17,7.42c2.71,1.86,6.02,2.79,9.94,2.79
														c4.68,0,8.61-1.05,11.81-3.17c3.21-2.11,5.21-5.69,6.02-10.73h14.21c-0.32,4.92-1.74,9.43-4.27,13.54
														c-2.52,4.1-6.09,7.4-10.73,9.9c-4.64,2.49-10.32,3.73-17.04,3.73c-4.54,0-8.78-0.85-12.71-2.56
														c-3.92-1.72-7.34-4.11-10.27-7.19c-2.92-3.08-5.19-6.65-6.81-10.69C76.1,23.07,75.3,18.7,75.3,14.04z"/>
												</g>
											</g>
										</g>
										<g>
											<g transform="translate(262.133286, 139.862091)">
												<g>
													<path class="st4" d="M132.86-4.73h-15.88v32.5c0,2.79,0.42,4.77,1.25,5.92c0.84,1.16,2.8,1.73,5.85,1.73h4.1v11.21
														h-4.1c-4.49,0-8.14-0.31-10.94-0.94c-2.79-0.62-4.93-1.63-6.4-3.02c-1.46-1.4-2.45-3.33-2.98-5.79
														c-0.53-2.46-0.79-5.49-0.79-9.1v-32.5H92.71V-15h10.27v-22.31h14V-15h15.88V-4.73z"/>
												</g>
											</g>
										</g>
										<g>
											<g transform="translate(0.827712, 212.816828)">
												<g>
													<path class="st4" d="M41.09,71.88c-8.28,0-15.04-1.35-20.27-4.06c-5.22-2.71-9.06-6.41-11.52-11.1
														C6.84,52,5.61,46.63,5.61,40.58h14.38c0,5.61,1.8,9.82,5.42,12.63c3.61,2.79,8.84,4.19,15.69,4.19
														c6.09,0,10.65-0.92,13.67-2.75c3.03-1.83,4.54-4.4,4.54-7.71c0-2.36-0.59-4.27-1.77-5.73
														c-1.18-1.47-2.74-2.59-4.67-3.38c-1.93-0.78-4.02-1.32-6.25-1.62l-13.35-1.88c-5.29-0.75-9.91-2.21-13.83-4.37
														c-3.92-2.18-6.95-4.98-9.1-8.4c-2.14-3.43-3.21-7.39-3.21-11.88c0-2.8,0.65-5.63,1.96-8.46
														c1.3-2.83,3.23-5.4,5.79-7.69c2.55-2.3,5.71-4.15,9.48-5.52c3.76-1.38,8.1-2.06,13.02-2.06
														c6.42,0,11.77,0.83,16.06,2.48c4.29,1.66,7.69,3.89,10.21,6.69c2.53,2.79,4.33,5.95,5.42,9.48
														c1.09,3.52,1.65,7.17,1.65,10.96l-14.1,0.1c0-2-0.24-3.92-0.71-5.75c-0.46-1.83-1.38-3.51-2.75-5.04
														c-1.36-1.53-3.31-2.72-5.83-3.58c-2.52-0.88-5.83-1.31-9.94-1.31c-3.86,0-6.99,0.49-9.4,1.46
														c-2.39,0.96-4.14,2.19-5.23,3.69c-1.08,1.49-1.62,3.01-1.62,4.56c0,2.86,1.07,5.37,3.21,7.52
														c2.15,2.14,5.13,3.46,8.94,3.96l13.35,1.88c6.53,0.86,11.75,2.51,15.67,4.94c3.93,2.43,6.76,5.41,8.5,8.94
														c1.75,3.52,2.62,7.42,2.62,11.71c0,2.99-0.53,5.87-1.58,8.65c-1.06,2.77-2.8,5.25-5.23,7.46
														c-2.43,2.21-5.74,3.95-9.92,5.23C52.51,71.24,47.31,71.88,41.09,71.88z"/>
												</g>
											</g>
										</g>
										<g>
											<g transform="translate(55.736213, 212.816828)">
												<g>
													<path class="st4" d="M37.91,98.96h-14V5.58h14l-2.79,17.54h2.79c1.75-6.84,4.72-11.79,8.92-14.83
														c4.21-3.05,9.3-4.58,15.27-4.58c4.61,0,8.91,0.87,12.9,2.63c3.98,1.74,7.51,4.15,10.58,7.23
														c3.08,3.08,5.48,6.67,7.19,10.75c1.72,4.07,2.58,8.44,2.58,13.1c0,4.61-0.86,8.94-2.58,12.98
														c-1.71,4.04-4.1,7.6-7.19,10.69c-3.07,3.08-6.6,5.5-10.58,7.25c-3.99,1.74-8.29,2.6-12.9,2.6
														c-5.97,0-11.06-1.49-15.27-4.48c-4.2-2.98-7.17-7.9-8.92-14.75l-2.79,0.19l2.79,19.04V98.96z M37.91,37.42
														c0,7.35,2.04,12.89,6.12,16.62c4.08,3.74,9.79,5.6,17.12,5.6c4.55,0,8.3-1.03,11.25-3.08
														c2.96-2.05,5.17-4.78,6.63-8.17c1.47-3.4,2.21-7.09,2.21-11.08c0-4.04-0.74-7.77-2.21-11.19
														c-1.46-3.43-3.67-6.19-6.63-8.27c-2.95-2.08-6.7-3.12-11.25-3.12c-7.33,0-13.04,2.02-17.12,6.06
														S37.91,30.38,37.91,37.42z"/>
												</g>
											</g>
										</g>
										<g>
											<g transform="translate(113.37611, 212.816828)">
												<g>
													<path class="st4" d="M43.13,70.94V5.58h14l-2.79,19.23h2.79c1.07-4.67,2.81-8.4,5.23-11.21
														c2.43-2.8,5.31-4.84,8.65-6.1c3.33-1.28,6.83-1.92,10.5-1.92v11.19c-4.6,0-8.74,0.6-12.42,1.79
														c-3.67,1.18-6.56,3.27-8.69,6.25c-2.11,2.99-3.17,7.19-3.17,12.6l-0.1,33.52H43.13z"/>
												</g>
											</g>
										</g>
										<g>
											<g transform="translate(146.223152, 212.816828)">
												<g>
													<path class="st4" d="M55.1,70.94V5.58h14.02v65.35H55.1z M54.07-5.17l8.04-7.94l7.94,7.94l-7.94,7.94L54.07-5.17z"/>
												</g>
											</g>
										</g>
										<g>
											<g transform="translate(162.261483, 212.816828)">
												<g>
													<path class="st4" d="M59.42,70.94V5.58h14l-2.79,19.23h2.79c1.07-4.67,2.83-8.4,5.29-11.21
														c2.46-2.8,5.43-4.84,8.92-6.1c3.48-1.28,7.22-1.92,11.21-1.92c3.04,0,6.08,0.47,9.12,1.4
														c3.05,0.93,5.86,2.55,8.42,4.85c2.55,2.31,4.61,5.53,6.17,9.67c1.55,4.14,2.33,9.45,2.33,15.92v33.52h-14V37.42
														c0-5.42-0.74-9.61-2.21-12.6c-1.46-2.98-3.44-5.07-5.94-6.25c-2.49-1.19-5.31-1.79-8.48-1.79c-2.56,0-5.06,0.33-7.52,1
														c-2.46,0.66-4.69,1.74-6.69,3.27c-1.99,1.52-3.57,3.61-4.75,6.29c-1.18,2.68-1.77,6.04-1.77,10.08l-0.1,33.52H59.42z"
														/>
												</g>
											</g>
										</g>
										<g>
											<g transform="translate(215.419053, 212.816828)">
												<g>
													<path class="st4" d="M117.29,19.58h-15.88v32.5c0,2.79,0.42,4.77,1.25,5.92c0.84,1.16,2.8,1.73,5.85,1.73h4.1v11.21
														h-4.1c-4.49,0-8.14-0.31-10.94-0.94c-2.79-0.62-4.93-1.63-6.4-3.02c-1.46-1.4-2.45-3.33-2.98-5.79
														c-0.53-2.46-0.79-5.49-0.79-9.1v-32.5H77.14V9.31h10.27V-13h14V9.31h15.88V19.58z"/>
												</g>
											</g>
										</g>
									</g>
								</g>
							</g>
						</g>
					</g>
					<g>
						<g transform="translate(2.827711, 351.448194)">
							<g>
								<path class="st4" d="M18.61,117.15H3.34v-3.42l5.85-6.02c1.78-1.82,3.02-3.24,3.73-4.27c0.72-1.03,1.08-2.16,1.08-3.4
									c0-1.23-0.35-2.11-1.04-2.65c-0.7-0.53-1.83-0.79-3.4-0.79c-1.49,0-3.14,0.18-4.94,0.52l-0.9,0.12l-0.25-3.15
									c2.32-0.69,4.73-1.04,7.23-1.04c4.94,0,7.42,2.2,7.42,6.6c0,1.72-0.38,3.22-1.12,4.5c-0.75,1.27-2.1,2.79-4.04,4.58
									l-5.06,4.92h10.71V117.15z"/>
							</g>
						</g>
					</g>
					<g>
						<g transform="translate(17.90414, 351.448194)">
							<g>
								<path class="st4" d="M23.34,93.46v3.52H12.36l-0.62,6.23c1.64-0.73,3.24-1.1,4.81-1.1c5.08,0,7.62,2.37,7.62,7.1
									c0,2.68-0.7,4.74-2.1,6.19c-1.41,1.43-3.39,2.15-5.94,2.15c-1.08,0-2.31-0.1-3.67-0.31c-1.36-0.19-2.45-0.39-3.27-0.58
									l-1.23-0.33l0.44-3c2.82,0.47,5.23,0.71,7.25,0.71c1.39,0,2.46-0.38,3.23-1.15c0.76-0.76,1.15-1.84,1.15-3.25
									c0-1.42-0.33-2.44-1-3.06c-0.67-0.62-1.54-0.94-2.62-0.94c-1.93,0-3.51,0.24-4.73,0.71l-0.65,0.25l-2.52-0.52l0.65-12.6
									H23.34z"/>
							</g>
						</g>
					</g>
					<g>
						<g transform="translate(32.980569, 351.448194)">
						</g>
					</g>
					<g>
						<g transform="translate(38.903446, 351.448194)">
							<g>
								<path class="st4" d="M15.16,105.92h17.96v3.33H15.16V105.92z"/>
							</g>
						</g>
					</g>
					<g>
						<g transform="translate(55.649045, 351.448194)">
						</g>
					</g>
					<g>
						<g transform="translate(61.571921, 351.448194)">
							<g>
								<path class="st4" d="M38.19,117.15H22.92v-3.42l5.85-6.02c1.78-1.82,3.02-3.24,3.73-4.27c0.72-1.03,1.08-2.16,1.08-3.4
									c0-1.23-0.35-2.11-1.04-2.65c-0.7-0.53-1.83-0.79-3.4-0.79c-1.49,0-3.14,0.18-4.94,0.52l-0.9,0.12l-0.25-3.15
									c2.32-0.69,4.73-1.04,7.23-1.04c4.94,0,7.42,2.2,7.42,6.6c0,1.72-0.38,3.22-1.12,4.5c-0.75,1.27-2.1,2.79-4.04,4.58
									l-5.06,4.92h10.71V117.15z"/>
							</g>
						</g>
					</g>
					<g>
						<g transform="translate(76.64835, 351.448194)">
							<g>
								<path class="st4" d="M29.3,94.71c1.51-1.09,3.59-1.65,6.23-1.65c2.64,0,4.73,0.55,6.29,1.65c1.57,1.08,2.35,2.64,2.35,4.67
									c0,1.43-0.22,2.52-0.67,3.25c-0.45,0.74-1.27,1.49-2.48,2.25c1.21,0.79,2.09,1.6,2.65,2.42c0.57,0.82,0.85,1.97,0.85,3.44
									c0,2.39-0.83,4.12-2.48,5.21c-1.64,1.07-3.81,1.6-6.52,1.6c-5.93,0-8.9-2.14-8.9-6.42c0-1.61,0.27-2.84,0.81-3.71
									c0.55-0.86,1.43-1.71,2.63-2.54c-1.13-0.75-1.92-1.52-2.38-2.31c-0.45-0.8-0.67-1.88-0.67-3.23
									C27.03,97.34,27.78,95.8,29.3,94.71z M30.9,110.25c0,2.47,1.55,3.71,4.67,3.71c3.12,0,4.69-1.26,4.69-3.77
									c0-1.65-1-2.79-3-3.42H33.8C31.87,107.4,30.9,108.56,30.9,110.25z M39.9,99.96c0-2.21-1.44-3.31-4.31-3.31
									c-2.86,0-4.29,1.1-4.29,3.31c0,1.43,0.83,2.56,2.5,3.4h3.46C39.02,102.52,39.9,101.39,39.9,99.96z"/>
							</g>
						</g>
					</g>
					<g>
						<g transform="translate(111.136335, 351.448194)">
						</g>
					</g>
					<g>
						<g transform="translate(117.059212, 351.448194)">
							<g>
								<path class="st4" d="M39.73,117.15l6.08-24.58h7.92l6.1,24.58h-4.02l-1.31-5.27h-9.46l-1.31,5.27H39.73z M48.89,95.9
									l-3.06,12.46h7.88L50.69,95.9H48.89z"/>
							</g>
						</g>
					</g>
					<g>
						<g transform="translate(133.024041, 351.448194)">
							<g>
								<path class="st4" d="M50.99,109.3c0,3.18,1.67,4.77,5.02,4.77c3.34,0,5.02-1.59,5.02-4.77V92.57h4.02v16.65
									c0,2.91-0.77,5.02-2.29,6.35c-1.52,1.32-3.77,1.98-6.77,1.98s-5.26-0.66-6.77-1.98c-1.5-1.33-2.25-3.45-2.25-6.35V92.57
									h4.02V109.3z"/>
							</g>
						</g>
					</g>
					<g>
						<g transform="translate(150.523469, 351.448194)">
							<g>
								<path class="st4" d="M63.03,107.75v-3.52h7v12.48c-0.66,0.17-1.97,0.35-3.94,0.54c-1.97,0.19-3.41,0.29-4.29,0.29
									c-3.74,0-6.31-1.03-7.73-3.08c-1.41-2.05-2.1-5.28-2.1-9.67c0-4.4,0.72-7.6,2.17-9.6c1.46-2.01,3.96-3.02,7.52-3.02
									c2.11,0,4.48,0.24,7.12,0.71l1.25,0.25l-0.15,3.17c-2.91-0.39-5.5-0.58-7.79-0.58s-3.87,0.65-4.73,1.94
									c-0.85,1.29-1.27,3.69-1.27,7.19s0.4,5.92,1.21,7.25c0.8,1.32,2.42,1.98,4.85,1.98c1.75,0,3.05-0.11,3.92-0.33v-5.98H63.03z
									"/>
							</g>
						</g>
					</g>
					<g>
						<g transform="translate(167.026773, 351.448194)">
							<g>
								<path class="st4" d="M62.32,109.3c0,3.18,1.67,4.77,5.02,4.77c3.34,0,5.02-1.59,5.02-4.77V92.57h4.02v16.65
									c0,2.91-0.77,5.02-2.29,6.35c-1.52,1.32-3.77,1.98-6.77,1.98s-5.26-0.66-6.77-1.98c-1.5-1.33-2.25-3.45-2.25-6.35V92.57
									h4.02V109.3z"/>
							</g>
						</g>
					</g>
					<g>
						<g transform="translate(184.5262, 351.448194)">
							<g>
								<path class="st4" d="M71.55,95.65c-3.03,0-4.54,1.06-4.54,3.19c0,1.11,0.35,1.91,1.06,2.38c0.72,0.46,2.3,1.03,4.75,1.71
									c2.46,0.68,4.19,1.49,5.19,2.44c1.01,0.95,1.52,2.44,1.52,4.48c0,2.58-0.74,4.52-2.21,5.79c-1.47,1.28-3.48,1.92-6.02,1.92
									c-2.03,0-4.28-0.24-6.75-0.73l-1.29-0.25l0.4-3.19c3.23,0.43,5.7,0.65,7.4,0.65c2.97,0,4.46-1.31,4.46-3.94
									c0-1.04-0.34-1.8-1.02-2.29c-0.67-0.48-2.18-1.02-4.52-1.6c-2.33-0.59-4.08-1.41-5.23-2.44c-1.16-1.03-1.73-2.65-1.73-4.88
									c0-2.22,0.72-3.9,2.17-5.04c1.46-1.14,3.46-1.71,6.02-1.71c1.84,0,4.03,0.22,6.54,0.65l1.25,0.21l-0.31,3.23
									C75.31,95.84,72.94,95.65,71.55,95.65z"/>
							</g>
						</g>
					</g>
					<g>
						<g transform="translate(199.144946, 351.448194)">
							<g>
								<path class="st4" d="M66.84,96.11v-3.54H84.8v3.54h-6.94v21.04h-4.02V96.11H66.84z"/>
							</g>
						</g>
					</g>
					<g>
						<g transform="translate(91.730797, 340.225714)">
							<g>
								<path class="st4" d="M30.85,100.78v-2.12h10.77v2.12h-4.15v12.62h-2.42v-12.62H30.85z"/>
							</g>
						</g>
					</g>
					<g>
						<g transform="translate(100.222523, 340.225714)">
							<g>
								<path class="st4" d="M43.89,113.41v-6.38h-6.4v6.38h-2.38V98.66h2.38v6.29h6.4v-6.29h2.4v14.75H43.89z"/>
							</g>
						</g>
					</g>
					<g>
						<g transform="translate(2.827711, 387.360131)">
							<g>
								<path class="st4" d="M18.38,129.12V118.5H7.76v10.63H3.78v-24.58h3.98v10.48h10.63v-10.48h4.02v24.58H18.38z"/>
							</g>
						</g>
					</g>
					<g>
						<g transform="translate(21.027116, 387.360131)">
							<g>
								<path class="st4" d="M18.86,121.47h-5.04v7.65H9.84v-24.58h9.02c5.57,0,8.35,2.75,8.35,8.25c0,2.82-0.7,4.97-2.1,6.46
									C23.71,120.73,21.62,121.47,18.86,121.47z M13.82,118.04h5c2.88,0,4.31-1.75,4.31-5.25c0-1.68-0.35-2.9-1.04-3.67
									c-0.7-0.76-1.79-1.15-3.27-1.15h-5V118.04z"/>
							</g>
						</g>
					</g>
					<g>
						<g transform="translate(36.93813, 387.360131)">
							<g>
								<path class="st4" d="M15.15,129.12v-24.58h3.98v24.58H15.15z"/>
							</g>
						</g>
					</g>
					<g>
						<g transform="translate(44.180194, 387.360131)">
						</g>
					</g>
					<g>
						<g transform="translate(50.103071, 387.360131)">
							<g>
								<path class="st4" d="M27.78,129.52c-3.58,0-6.02-0.99-7.29-2.98c-1.28-1.98-1.92-5.25-1.92-9.79c0-4.55,0.65-7.79,1.94-9.71
									c1.29-1.93,3.71-2.9,7.27-2.9c2.14,0,4.48,0.3,7.04,0.9l-0.15,3.23c-2.16-0.39-4.31-0.58-6.46-0.58
									c-2.16,0-3.61,0.65-4.38,1.94c-0.77,1.28-1.15,3.68-1.15,7.21c0,3.53,0.36,5.93,1.1,7.21c0.75,1.28,2.2,1.92,4.35,1.92
									c2.15,0,4.32-0.17,6.52-0.52l0.1,3.29C32.33,129.25,29.99,129.52,27.78,129.52z"/>
							</g>
						</g>
					</g>
					<g>
						<g transform="translate(64.748748, 387.360131)">
							<g>
								<path class="st4" d="M22.29,129.12l6.08-24.58h7.92l6.1,24.58h-4.02l-1.31-5.27H27.6l-1.31,5.27H22.29z M31.46,107.87
									l-3.06,12.46h7.88l-3.02-12.46H31.46z"/>
							</g>
						</g>
					</g>
					<g>
						<g transform="translate(80.875138, 387.360131)">
							<g>
								<path class="st4" d="M29.79,129.12v-24.58h6.94l5.48,19.21l5.5-19.21h6.96v24.58h-4.02v-20.17H50.1l-5.81,19.17h-4.17
									l-5.81-19.17h-0.54v20.17H29.79z"/>
							</g>
						</g>
					</g>
					<g>
						<g transform="translate(103.759002, 387.360131)">
							<g>
								<path class="st4" d="M46.44,121.47H41.4v7.65h-3.98v-24.58h9.02c5.57,0,8.35,2.75,8.35,8.25c0,2.82-0.7,4.97-2.1,6.46
									C51.28,120.73,49.2,121.47,46.44,121.47z M41.4,118.04h5c2.88,0,4.31-1.75,4.31-5.25c0-1.68-0.35-2.9-1.04-3.67
									c-0.7-0.76-1.79-1.15-3.27-1.15h-5V118.04z"/>
							</g>
						</g>
					</g>
					<g>
						<g transform="translate(119.670016, 387.360131)">
							<g>
								<path class="st4" d="M46.54,121.27c0,3.18,1.67,4.77,5.02,4.77c3.34,0,5.02-1.59,5.02-4.77v-16.73h4.02v16.65
									c0,2.91-0.77,5.02-2.29,6.35c-1.52,1.32-3.77,1.98-6.77,1.98s-5.26-0.66-6.77-1.98c-1.5-1.33-2.25-3.45-2.25-6.35v-16.65
									h4.02V121.27z"/>
							</g>
						</g>
					</g>
					<g>
						<g transform="translate(137.169443, 387.360131)">
							<g>
								<path class="st4" d="M55.76,107.62c-3.03,0-4.54,1.06-4.54,3.19c0,1.11,0.35,1.91,1.06,2.38c0.72,0.46,2.3,1.03,4.75,1.71
									c2.46,0.68,4.19,1.49,5.19,2.44c1.01,0.95,1.52,2.44,1.52,4.48c0,2.58-0.74,4.52-2.21,5.79c-1.47,1.28-3.48,1.92-6.02,1.92
									c-2.03,0-4.28-0.24-6.75-0.73l-1.29-0.25l0.4-3.19c3.23,0.43,5.7,0.65,7.4,0.65c2.97,0,4.46-1.31,4.46-3.94
									c0-1.04-0.34-1.8-1.02-2.29c-0.67-0.48-2.18-1.02-4.52-1.6c-2.33-0.59-4.08-1.41-5.23-2.44c-1.16-1.03-1.73-2.65-1.73-4.88
									c0-2.22,0.72-3.9,2.17-5.04c1.46-1.14,3.46-1.71,6.02-1.71c1.84,0,4.03,0.22,6.54,0.65l1.25,0.21l-0.31,3.23
									C59.53,107.81,57.15,107.62,55.76,107.62z"/>
							</g>
						</g>
					</g>
					<g>
						<g transform="translate(151.788189, 387.360131)">
							<g>
								<path class="st4" d="M51.53,133.54l1.73-8.88h4.29l-2.88,8.88H51.53z"/>
							</g>
						</g>
					</g>
					<g>
						<g transform="translate(158.411044, 387.360131)">
						</g>
					</g>
					<g>
						<g transform="translate(164.33392, 387.360131)">
							<g>
								<path class="st4" d="M66.63,121.47h-5.04v7.65h-3.98v-24.58h9.02c5.57,0,8.35,2.75,8.35,8.25c0,2.82-0.7,4.97-2.1,6.46
									C71.48,120.73,69.39,121.47,66.63,121.47z M61.59,118.04h5c2.88,0,4.31-1.75,4.31-5.25c0-1.68-0.35-2.9-1.04-3.67
									c-0.7-0.76-1.79-1.15-3.27-1.15h-5V118.04z"/>
							</g>
						</g>
					</g>
					<g>
						<g transform="translate(180.244934, 387.360131)">
							<g>
								<path class="st4" d="M67.19,123.93c0.82,1.41,2.38,2.1,4.67,2.1c2.3,0,3.85-0.69,4.65-2.08c0.8-1.39,1.21-3.71,1.21-6.98
									c0-3.26-0.42-5.64-1.25-7.12c-0.82-1.48-2.35-2.23-4.6-2.23s-3.79,0.74-4.62,2.23c-0.83,1.49-1.25,3.85-1.25,7.1
									C65.98,120.19,66.38,122.52,67.19,123.93z M79.62,126.5c-1.47,2.02-4.06,3.02-7.77,3.02c-3.71,0-6.31-1.01-7.79-3.02
									c-1.49-2.03-2.23-5.21-2.23-9.54c0-4.33,0.75-7.55,2.25-9.65c1.5-2.11,4.09-3.17,7.77-3.17c3.68,0,6.26,1.05,7.75,3.15
									c1.48,2.08,2.23,5.31,2.23,9.67C81.83,121.3,81.09,124.48,79.62,126.5z"/>
							</g>
						</g>
					</g>
					<g>
						<g transform="translate(197.555847, 387.360131)">
							<g>
								<path class="st4" d="M66.31,108.08v-3.54h17.96v3.54h-6.94v21.04h-4.02v-21.04H66.31z"/>
							</g>
						</g>
					</g>
					<g>
						<g transform="translate(211.716922, 387.360131)">
							<g>
								<path class="st4" d="M80.61,107.62c-3.03,0-4.54,1.06-4.54,3.19c0,1.11,0.35,1.91,1.06,2.38c0.72,0.46,2.3,1.03,4.75,1.71
									c2.46,0.68,4.19,1.49,5.19,2.44c1.01,0.95,1.52,2.44,1.52,4.48c0,2.58-0.74,4.52-2.21,5.79c-1.47,1.28-3.48,1.92-6.02,1.92
									c-2.03,0-4.28-0.24-6.75-0.73l-1.29-0.25l0.4-3.19c3.23,0.43,5.7,0.65,7.4,0.65c2.97,0,4.46-1.31,4.46-3.94
									c0-1.04-0.34-1.8-1.02-2.29c-0.67-0.48-2.18-1.02-4.52-1.6c-2.33-0.59-4.08-1.41-5.23-2.44c-1.16-1.03-1.73-2.65-1.73-4.88
									c0-2.22,0.72-3.9,2.17-5.04c1.46-1.14,3.46-1.71,6.02-1.71c1.84,0,4.03,0.22,6.54,0.65l1.25,0.21l-0.31,3.23
									C84.37,107.81,82,107.62,80.61,107.62z"/>
							</g>
						</g>
					</g>
					<g>
						<g transform="translate(226.335668, 387.360131)">
							<g>
								<path class="st4" d="M86.78,129.12h-8.5v-24.58h8.5c3.79,0,6.38,0.96,7.77,2.88c1.39,1.91,2.08,4.91,2.08,9
									c0,2.08-0.14,3.85-0.42,5.29c-0.28,1.45-0.77,2.76-1.46,3.94C93.39,127.96,90.74,129.12,86.78,129.12z M92.49,116.41
									c0-2.97-0.37-5.11-1.1-6.42c-0.74-1.32-2.27-1.98-4.6-1.98h-4.52v17.58h4.52c2.38,0,3.96-0.88,4.75-2.62
									c0.38-0.88,0.62-1.81,0.75-2.81C92.41,119.15,92.49,117.9,92.49,116.41z"/>
							</g>
						</g>
					</g>
					<g>
						<g transform="translate(243.269667, 387.360131)">
							<g>
								<path class="st4" d="M81.8,129.12l6.08-24.58h7.92l6.1,24.58h-4.02l-1.31-5.27h-9.46l-1.31,5.27H81.8z M90.96,107.87
									l-3.06,12.46h7.88l-3.02-12.46H90.96z"/>
							</g>
						</g>
					</g>
					<g>
						<g transform="translate(259.396046, 387.360131)">
							<g>
								<path class="st4" d="M89.3,129.12v-24.58h6.94l5.48,19.21l5.5-19.21h6.96v24.58h-4.02v-20.17h-0.54l-5.81,19.17h-4.17
									l-5.81-19.17h-0.54v20.17H89.3z"/>
							</g>
						</g>
					</g>
					<g>
						<g transform="translate(282.279932, 387.360131)">
							<g>
								<path class="st4" d="M95.24,128.79l10.23-25.29l3.46,1.25l-10.27,25.27L95.24,128.79z"/>
							</g>
						</g>
					</g>
					<g>
						<g transform="translate(294.206466, 387.360131)">
							<g>
								<path class="st4" d="M100.9,104.54h9.33c2.51,0,4.39,0.51,5.62,1.52c1.25,1.02,1.88,2.64,1.88,4.85
									c0,1.47-0.24,2.62-0.71,3.46c-0.46,0.83-1.19,1.53-2.19,2.08c2.33,0.91,3.5,2.81,3.5,5.71c0,4.64-2.6,6.96-7.81,6.96h-9.62
									V104.54z M110.24,118.39h-5.35v7.29h5.44c1.3,0,2.28-0.28,2.94-0.83c0.67-0.55,1-1.5,1-2.83c0-1.34-0.39-2.28-1.15-2.81
									C112.34,118.66,111.39,118.39,110.24,118.39z M110.03,107.97h-5.15v7.04h5.29c2.34,0,3.52-1.21,3.52-3.62
									C113.69,109.11,112.47,107.97,110.03,107.97z"/>
							</g>
						</g>
					</g>
					<g>
						<g transform="translate(310.682839, 387.360131)">
							<g>
								<path class="st4" d="M106.39,129.12v-24.58h15.5v3.48h-11.52v6.96h9.38v3.46h-9.38v7.17h11.52v3.52H106.39z"/>
							</g>
						</g>
					</g>
					<g>
						<g transform="translate(325.570823, 387.360131)">
							<g>
								<path class="st4" d="M115.34,120.37v8.75h-3.98v-24.58h9.33c5.55,0,8.33,2.6,8.33,7.81c0,3.5-1.34,5.88-4.02,7.12l4.06,9.65
									h-4.4l-3.54-8.75H115.34z M124.92,112.39c0-2.94-1.41-4.42-4.23-4.42h-5.35v8.94h5.44c1.43,0,2.48-0.41,3.15-1.23
									C124.59,114.85,124.92,113.76,124.92,112.39z"/>
							</g>
						</g>
					</g>
					<g>
						<g transform="translate(342.208734, 387.360131)">
							<g>
								<path class="st4" d="M130.69,129.12H116.9v-24.58h3.98v21.02h9.81V129.12z"/>
							</g>
						</g>
					</g>
					<g>
						<g transform="translate(354.996772, 387.360131)">
							<g>
								<path class="st4" d="M121.17,129.12v-24.58h3.98v24.58H121.17z"/>
							</g>
						</g>
					</g>
					<g>
						<g transform="translate(362.238824, 387.360131)">
							<g>
								<path class="st4" d="M123.58,129.12v-24.58h6.96l7.48,21.06h0.54v-21.06h3.98v24.58h-6.83l-7.65-21.1h-0.5v21.1H123.58z"/>
							</g>
						</g>
					</g>
					<g>
						<g transform="translate(0, 308.311302)">
							<g>
								<path class="st4" d="M5.72,47.59c0-6.47,1.35-12.07,4.06-16.79c2.72-4.74,6.52-8.4,11.4-10.95
									c4.83-2.53,10.41-3.8,16.73-3.8c6.35,0,11.86,1.05,16.54,3.14c4.77,2.13,8.47,5.22,11.12,9.28
									c2.65,4.06,3.97,8.87,3.97,14.45c0,3.88-0.85,7.2-2.54,9.97c-1.65,2.7-3.89,5.03-6.7,7.01c-2.71,1.9-5.74,3.58-9.09,5.03
									c-3.26,1.41-6.64,2.79-10.15,4.14c-3.45,1.32-6.77,2.74-9.96,4.24c-3.12,1.47-5.93,3.19-8.44,5.16
									c-2.42,1.91-4.34,4.18-5.74,6.82c-1.39,2.61-2.08,5.79-2.08,9.54h-1.75v-1.75h56v11.44H2.92v-9.69
									c0-5.1,0.81-9.52,2.43-13.26c1.62-3.73,3.83-6.92,6.61-9.54c2.72-2.56,5.77-4.77,9.14-6.61c3.31-1.81,6.74-3.4,10.3-4.77
									l10.09-3.83c3.17-1.19,6.04-2.45,8.58-3.79c2.41-1.26,4.29-2.73,5.67-4.41c1.26-1.55,1.9-3.45,1.9-5.71
									c0-5.22-1.6-9.07-4.79-11.55c-3.33-2.59-8.31-3.88-14.94-3.88c-6.51,0-11.52,1.68-15.04,5.03
									c-3.5,3.33-5.24,8.35-5.24,15.07v1.75H5.72V47.59z M9.22,47.59H7.47v-1.75h8.41v1.75h-1.76c0-7.72,2.11-13.59,6.33-17.61
									c4.2-3.99,10.02-5.99,17.45-5.99s13.13,1.54,17.09,4.61c4.09,3.18,6.14,7.96,6.14,14.32c0,3.09-0.9,5.73-2.68,7.92
									c-1.68,2.05-3.93,3.82-6.76,5.3c-2.68,1.41-5.67,2.72-8.97,3.96l-10.07,3.82c-3.42,1.31-6.7,2.83-9.88,4.57
									c-3.1,1.7-5.91,3.73-8.42,6.09c-2.44,2.29-4.38,5.09-5.8,8.39c-1.43,3.29-2.15,7.24-2.15,11.86v7.94H4.67v-1.75h62.66v1.75
									h-1.76v-7.94h1.76v1.75h-56v-1.75c0-4.34,0.83-8.07,2.49-11.19c1.64-3.08,3.86-5.72,6.68-7.93
									c2.71-2.14,5.76-3.99,9.11-5.58c3.28-1.54,6.68-2.99,10.2-4.34c3.46-1.33,6.8-2.69,10.02-4.08
									c3.13-1.35,5.95-2.91,8.47-4.68c2.42-1.69,4.32-3.69,5.72-5.97c1.35-2.21,2.03-4.92,2.03-8.14c0-4.89-1.14-9.06-3.4-12.54
									c-2.27-3.48-5.48-6.15-9.61-7.99c-4.22-1.89-9.26-2.84-15.11-2.84c-5.75,0-10.79,1.14-15.1,3.4
									c-4.28,2.24-7.6,5.44-9.98,9.59C10.42,36.72,9.22,41.73,9.22,47.59z"/>
							</g>
						</g>
					</g>
					<g>
						<g transform="translate(54.338362, 308.311302)">
							<g>
								<path class="st4" d="M56.86,104.52c-6.64,0-12.57-1.73-17.78-5.19c-5.2-3.45-9.28-8.46-12.25-15.02
									c-2.94-6.49-4.41-14.34-4.41-23.55c0-9.28,1.47-17.15,4.41-23.6c2.97-6.53,7.05-11.52,12.25-14.97
									c5.21-3.46,11.14-5.2,17.78-5.2c6.58,0,12.46,1.73,17.64,5.2c5.16,3.45,9.23,8.44,12.2,14.97
									c2.94,6.46,4.41,14.32,4.41,23.6c0,9.21-1.47,17.06-4.41,23.55c-2.97,6.56-7.04,11.56-12.2,15.02
									C69.32,102.79,63.44,104.52,56.86,104.52z M56.86,101.02c5.87,0,11.1-1.54,15.69-4.61c4.61-3.08,8.26-7.6,10.96-13.55
									c2.72-6.03,4.09-13.4,4.09-22.1c0-8.78-1.36-16.16-4.09-22.15c-2.7-5.92-6.35-10.43-10.96-13.51
									c-4.59-3.07-9.82-4.6-15.69-4.6c-5.94,0-11.21,1.54-15.84,4.61c-4.64,3.08-8.31,7.58-11,13.51
									c-2.73,5.99-4.09,13.38-4.09,22.15c0,8.71,1.36,16.08,4.09,22.1c2.69,5.95,6.36,10.47,11,13.55
									C45.65,99.48,50.93,101.02,56.86,101.02z M34.34,60.75c0,10.73,1.77,18.78,5.31,24.15c3.39,5.14,9.12,7.71,17.21,7.71
									c8.02,0,13.71-2.57,17.07-7.7c3.52-5.37,5.27-13.43,5.27-24.16c0-10.73-1.76-18.79-5.27-24.16
									c-3.36-5.14-9.05-7.7-17.07-7.7c-8.09,0-13.82,2.57-17.21,7.71C36.11,41.97,34.34,50.03,34.34,60.75z M30.84,60.75
									c0-11.43,1.96-20.12,5.89-26.08c4.08-6.19,10.79-9.28,20.14-9.28c9.28,0,15.95,3.09,20,9.29
									c3.89,5.96,5.84,14.65,5.84,26.08s-1.95,20.12-5.84,26.07c-4.05,6.19-10.72,9.29-20,9.29c-9.34,0-16.06-3.09-20.14-9.29
									C32.8,80.87,30.84,72.18,30.84,60.75z"/>
							</g>
						</g>
					</g>
					<g>
						<g transform="translate(112.317957, 308.311302)">
							<g>
								<path class="st4" d="M43.16,47.59c0-6.47,1.35-12.07,4.06-16.79c2.72-4.74,6.52-8.4,11.4-10.95
									c4.83-2.53,10.41-3.8,16.73-3.8c6.35,0,11.86,1.05,16.54,3.14c4.77,2.13,8.47,5.22,11.12,9.28
									c2.65,4.06,3.97,8.87,3.97,14.45c0,3.88-0.85,7.2-2.54,9.97c-1.65,2.7-3.89,5.03-6.7,7.01c-2.71,1.9-5.74,3.58-9.09,5.03
									c-3.26,1.41-6.64,2.79-10.15,4.14c-3.45,1.32-6.77,2.74-9.96,4.24c-3.12,1.47-5.93,3.19-8.44,5.16
									c-2.42,1.91-4.34,4.18-5.74,6.82c-1.39,2.61-2.08,5.79-2.08,9.54h-1.75v-1.75h56v11.44H40.36v-9.69
									c0-5.1,0.81-9.52,2.43-13.26c1.62-3.73,3.83-6.92,6.61-9.54c2.72-2.56,5.77-4.77,9.14-6.61c3.31-1.81,6.74-3.4,10.3-4.77
									l10.09-3.83c3.17-1.19,6.04-2.45,8.58-3.79c2.41-1.26,4.29-2.73,5.67-4.41c1.26-1.55,1.9-3.45,1.9-5.71
									c0-5.22-1.6-9.07-4.79-11.55c-3.33-2.59-8.31-3.88-14.94-3.88c-6.51,0-11.52,1.68-15.04,5.03
									c-3.5,3.33-5.24,8.35-5.24,15.07v1.75H43.16V47.59z M46.66,47.59h-1.75v-1.75h8.41v1.75h-1.76c0-7.72,2.11-13.59,6.33-17.61
									c4.2-3.99,10.02-5.99,17.45-5.99s13.13,1.54,17.09,4.61c4.09,3.18,6.14,7.96,6.14,14.32c0,3.09-0.9,5.73-2.68,7.92
									c-1.68,2.05-3.93,3.82-6.76,5.3c-2.68,1.41-5.67,2.72-8.97,3.96L70.1,63.93c-3.42,1.31-6.7,2.83-9.88,4.57
									c-3.1,1.7-5.91,3.73-8.42,6.09c-2.44,2.29-4.38,5.09-5.8,8.39c-1.43,3.29-2.15,7.24-2.15,11.86v7.94h-1.75v-1.75h62.66v1.75
									h-1.76v-7.94h1.76v1.75h-56v-1.75c0-4.34,0.83-8.07,2.49-11.19c1.64-3.08,3.86-5.72,6.68-7.93
									c2.71-2.14,5.76-3.99,9.11-5.58c3.28-1.54,6.68-2.99,10.2-4.34c3.46-1.33,6.8-2.69,10.02-4.08
									c3.13-1.35,5.95-2.91,8.47-4.68c2.42-1.69,4.32-3.69,5.72-5.97c1.35-2.21,2.03-4.92,2.03-8.14c0-4.89-1.14-9.06-3.4-12.54
									c-2.27-3.48-5.48-6.15-9.61-7.99c-4.22-1.89-9.26-2.84-15.11-2.84c-5.75,0-10.79,1.14-15.1,3.4
									c-4.28,2.24-7.6,5.44-9.98,9.59C47.86,36.72,46.66,41.73,46.66,47.59z"/>
							</g>
						</g>
					</g>
					<g>
						<g transform="translate(166.65632, 308.311302)">
							<g>
								<path class="st4" d="M58.47,59.44c0.06-10.02,1.06-18.02,2.98-24.01c1.98-6.18,4.93-10.71,8.84-13.61
									c3.89-2.88,8.6-4.51,14.14-4.87c5.34-0.35,11.38,0.08,18.12,1.29l7.98,1.36v11.49l-8.58-1.47
									c-5.8-1.04-10.67-1.48-14.62-1.33c-3.74,0.15-6.76,0.98-9.04,2.51c-2.24,1.51-3.97,3.84-5.17,7.02
									c-1.28,3.35-2.1,7.74-2.46,13.17l-1.74-0.12V49.1h15.78c6.26,0,11.42,0.79,15.48,2.36c4.14,1.6,7.39,3.79,9.76,6.57
									c2.35,2.75,3.99,5.88,4.94,9.36c0.91,3.39,1.36,6.9,1.36,10.54c0,4.9-0.85,9.41-2.56,13.51c-1.76,4.24-4.7,7.64-8.81,10.2
									c-4.08,2.54-9.56,3.81-16.43,3.81c-6.89,0-12.57-1.52-17.04-4.55c-4.51-3.06-7.82-8.03-9.93-14.9
									C59.4,79.37,58.41,70.51,58.47,59.44z M61.97,59.46c-0.06,10.71,0.88,19.22,2.82,25.53c1.88,6.08,4.72,10.42,8.56,13.03
									c3.87,2.63,8.9,3.94,15.07,3.94c6.2,0,11.06-1.09,14.58-3.28c3.48-2.17,5.95-5.03,7.43-8.57c1.53-3.67,2.29-7.73,2.29-12.17
									c0-3.33-0.42-6.54-1.24-9.62c-0.81-2.98-2.21-5.65-4.22-8.01c-1.99-2.33-4.77-4.18-8.36-5.57
									c-3.66-1.42-8.39-2.12-14.21-2.12H67.03l0.12-1.87c0.39-5.78,1.28-10.51,2.68-14.18c1.47-3.86,3.64-6.76,6.5-8.68
									c2.83-1.9,6.44-2.93,10.85-3.09c4.2-0.16,9.32,0.3,15.35,1.38l6.54,1.12L108.78,29h-1.76v-7.93h1.76l-0.3,1.72l-6.55-1.12
									c-6.46-1.16-12.21-1.57-17.27-1.23c-4.86,0.32-8.95,1.71-12.29,4.19c-3.31,2.45-5.84,6.41-7.59,11.88
									C62.97,42.15,62.03,49.8,61.97,59.46z M70.38,59.46c-0.06,7.55,0.33,13.65,1.19,18.3c0.83,4.53,2.03,7.98,3.61,10.36
									c1.51,2.27,3.31,3.81,5.42,4.6c2.26,0.86,4.87,1.29,7.83,1.29c5.78,0,9.87-1.28,12.26-3.83c2.43-2.59,3.64-6.67,3.64-12.25
									c0-2.93-0.22-5.53-0.67-7.78c-0.41-2.06-1.22-3.8-2.45-5.21c-1.21-1.4-3.07-2.46-5.57-3.2c-2.67-0.8-6.32-1.19-10.94-1.19
									H68.63v-1.75h1.75V59.46z M66.88,59.45v-2.41h17.81c4.96,0,8.94,0.44,11.94,1.33c3.16,0.94,5.57,2.36,7.22,4.27
									c1.64,1.89,2.72,4.16,3.24,6.83c0.49,2.47,0.73,5.3,0.73,8.46c0,6.5-1.53,11.38-4.58,14.65c-3.08,3.29-8.02,4.94-14.82,4.94
									c-3.39,0-6.41-0.51-9.07-1.52c-2.81-1.07-5.18-3.05-7.09-5.95c-1.84-2.78-3.22-6.67-4.14-11.67
									c-0.89-4.87-1.3-11.19-1.24-18.96V59.45z"/>
							</g>
						</g>
					</g>
				</g>
			</g>
		</g>
	</g>
</g>
</svg>
